<?xml version="1.0" standalone="no"?>
<!DOCTYPE svg PUBLIC "-//W3C//DTD SVG 1.1//EN" "http://www.w3.org/Graphics/SVG/1.1/DTD/svg11.dtd" >
<svg xmlns="http://www.w3.org/2000/svg">
<metadata>
<json>
<![CDATA[
{
	"fontFamily": "AgenciaIcons",
	"majorVersion": 1,
	"minorVersion": 0,
	"version": "Version 1.0",
	"fontId": "AgenciaIcons",
	"psName": "AgenciaIcons",
	"subFamily": "Regular",
	"fullName": "AgenciaIcons",
	"description": "Font generated by IcoMoon."
}
]]>
</json>
</metadata>
<defs>
<font id="AgenciaIcons" horiz-adv-x="1024">
<font-face units-per-em="1024" ascent="960" descent="-64" />
<missing-glyph horiz-adv-x="1024" />
<glyph unicode="&#x20;" horiz-adv-x="512" d="" />
<glyph unicode="&#xe900;" glyph-name="apps" data-tags="apps" d="M153.6 895.999c0-42.415-34.385-76.799-76.8-76.799v0c-42.415 0-76.8 34.384-76.8 76.799v0c0 0 0 0.001 0 0.001 0 42.415 34.385 76.8 76.8 76.8v0c42.415 0 76.8-34.384 76.8-76.8 0 0 0-0.001 0-0.001v0zM153.6 460.801c0 0 0-0.001 0-0.001 0-42.415-34.385-76.8-76.8-76.8v0c-42.415 0-76.8 34.385-76.8 76.8 0 0 0 0.001 0 0.001v0c0.001 42.415 34.385 76.799 76.8 76.799v0c42.415 0 76.799-34.384 76.8-76.799v0zM588.8 895.999c-0.001-42.415-34.385-76.799-76.8-76.799v0c-42.415 0-76.799 34.384-76.8 76.799v0c0 0 0 0.001 0 0.001 0 42.415 34.385 76.8 76.8 76.8v0c42.415 0 76.8-34.385 76.8-76.8 0 0 0-0.001 0-0.001v0zM153.6 25.598c0-42.415-34.385-76.799-76.8-76.799v0c-42.415 0-76.8 34.384-76.8 76.799v0c0 0 0 0.001 0 0.001 0 42.415 34.385 76.8 76.8 76.8v0c42.415 0 76.8-34.384 76.8-76.8 0 0 0-0.001 0-0.001v0zM1024 896.001c0 0 0-0.001 0-0.001 0-42.415-34.385-76.8-76.8-76.8v0c-42.415 0-76.8 34.385-76.8 76.8 0 0 0 0.001 0 0.001v0c0.001 42.415 34.385 76.799 76.8 76.799v0c42.415 0 76.799-34.384 76.8-76.799v0zM1024 25.598c-0.001-42.415-34.385-76.799-76.8-76.799v0c-42.415 0-76.799 34.384-76.8 76.799v0c0 0 0 0.001 0 0.001 0 42.415 34.385 76.8 76.8 76.8v0c42.415 0 76.8-34.385 76.8-76.8 0 0 0-0.001 0-0.001v0zM588.8 25.598c0-42.415-34.385-76.799-76.8-76.799v0c-42.415 0-76.8 34.384-76.8 76.799v0c0 0 0 0.001 0 0.001 0 42.415 34.385 76.8 76.8 76.8v0c42.415 0 76.8-34.384 76.8-76.8 0 0 0-0.001 0-0.001v0zM588.8 460.801c0 0 0-0.001 0-0.001 0-42.415-34.385-76.8-76.8-76.8v0c-42.415 0-76.8 34.385-76.8 76.8 0 0 0 0.001 0 0.001v0c0.001 42.415 34.385 76.799 76.8 76.799v0c42.415 0 76.799-34.384 76.8-76.799v0zM1024 460.799c-0.001-42.415-34.385-76.799-76.8-76.799v0c-42.415 0-76.799 34.384-76.8 76.799v0c0 0 0 0.001 0 0.001 0 42.415 34.385 76.8 76.8 76.8v0c42.415 0 76.8-34.385 76.8-76.8 0 0 0-0.001 0-0.001v0z" />
<glyph unicode="&#xe901;" glyph-name="arrow-down" data-tags="arrow-down" d="M512.202-0.050v972.85h-51.025v-972.85zM486.499-51.201l410.079 425.575-36.661 35.529-373.039-387.78-373.418 387.78-36.661-35.529z" />
<glyph unicode="&#xe902;" glyph-name="arrow-left" data-tags="arrow-left" d="M51.15 409.977h972.85v51.025h-972.85zM0 435.679l425.575-410.079 35.529 36.661-387.78 373.039 387.78 373.418-35.529 36.661z" />
<glyph unicode="&#xe903;" glyph-name="arrow-l-r" data-tags="arrow-l-r" d="M89.6 409.599h844.8l25.6 25.6-25.6 25.602h-844.8l-25.6-25.602zM1024 435.365l-378.040-358.566-31.56 32.055 344.466 326.18-344.466 326.511 31.56 32.055zM0 435.365l378.040-358.566 31.56 32.055-344.466 326.18 344.466 326.511-31.56 32.055z" />
<glyph unicode="&#xe904;" glyph-name="arrow-right" data-tags="arrow-right" d="M972.85 461.002h-972.85v-51.025h972.85zM1024 435.3l-425.575 410.079-35.529-36.661 387.78-373.039-387.78-373.418 35.529-36.661z" />
<glyph unicode="&#xe905;" glyph-name="arrow-up" data-tags="arrow-up" d="M461.178 921.647v-972.85h51.024v972.85zM486.879 972.672l-410.079-425.575 36.661-35.529 373.039 387.78 373.417-387.78 36.661 35.529z" />
<glyph unicode="&#xe906;" glyph-name="arrow-up-dw" data-tags="arrow-up-dw" d="M512 38.399l-0.087 844.801-25.513 25.6-25.512-25.6-0.088-844.801 25.6-25.6zM486.235 972.8l358.566-378.041-32.055-31.56-326.18 344.466-326.511-344.466-32.055 31.56zM486.235-51.201l358.566 378.041-32.055 31.56-326.18-344.466-326.511 344.466-32.055-31.56z" />
<glyph unicode="&#xe907;" glyph-name="attachment" data-tags="attachment" d="M597.921 972.293c-47.147-2.98-87.895-19.655-119.811-40.819-63.833-42.327-97.512-101.29-97.512-101.29l-249.071-433.513c-2.103-3.639-3.344-8.006-3.344-12.661 0-14.162 11.481-25.643 25.643-25.643 9.506 0 17.805 5.173 22.233 12.857l0.066 0.124 249.071 433.136c0 0 28.843 49.525 81.26 84.282s123.633 56.38 224.126-1.935c100.493-58.27 117.531-131.24 113.764-194.268s-32.126-112.63-32.126-112.63l-274.016-476.929c-22.794-39.651-55.586-72.888-89.953-89.954-34.366-17.068-68.186-19.597-103.937 1.161-59.802 34.675-84.504 74.069-91.465 114.52s4.797 84.319 27.591 123.968l269.48 468.283c0 0 10.049 16.719 27.591 28.348s37.571 19.597 73.323-1.161c35.752-20.729 39.058-42.364 37.795-63.497-1.264-21.131-10.583-38.172-10.583-38.172l-269.102-468.283c-2.804-4.051-4.479-9.069-4.479-14.478 0-14.162 11.481-25.643 25.643-25.643 10.078 0 18.798 5.813 22.989 14.27l0.067 0.15 269.102 468.285c0 0 15.689 26.124 17.764 60.85s-12.926 81.418-63.496 110.741c-50.571 29.323-98.412 18.829-127.37-0.387-28.958-19.196-43.843-45.733-43.843-45.733l-269.102-467.906c-27.044-47.043-43.627-102.507-34.016-158.36s46.728-109.644 116.409-150.047c50.571-29.325 106.141-25.954 152.315-3.019 46.174 22.929 84.83 63.696 111.874 110.741l274.016 476.598c0 0 33.972 58.684 38.551 135.305 4.579 76.623-23.774 174.65-139.087 241.512-57.656 33.431-111.216 44.186-158.362 41.197z" />
<glyph unicode="&#xe908;" glyph-name="bag" data-tags="bag" d="M149.3 614.4c-0.003 0-0.007 0-0.011 0-12.334 0-22.631-8.721-25.060-20.334l-0.029-0.166-123.7-614.4c-0.326-1.532-0.513-3.293-0.513-5.097 0-14.14 11.463-25.603 25.603-25.603 0.004 0 0.007 0 0.011 0h972.799c14.136 0.006 25.592 11.466 25.592 25.603 0 1.768-0.179 3.495-0.521 5.162l0.028-0.165-121.3 614.4c-2.418 11.825-12.734 20.596-25.1 20.6v0zM170.2 563.2h685.9l111.2-563.2h-910.4zM281.6 614.4c0 124.501 39.483 240.272 110.5 306.9 35.509 33.314 77.368 51.5 119.9 51.5s84.391-18.186 119.9-51.5c71.017-66.628 110.5-182.399 110.5-306.9h-51.2c0 113.295-38.586 217.23-94.3 269.5-27.857 26.135-56.715 37.7-84.9 37.7s-57.043-11.565-84.9-37.7c-55.714-52.27-94.3-156.205-94.3-269.5z" />
<glyph unicode="&#xe909;" glyph-name="bank" data-tags="bank" d="M510.236 972.672c-4.078-0.316-7.812-1.541-11.080-3.471l0.119 0.065-486.425-281.575c-7.56-4.542-12.54-12.699-12.54-22.020 0-14.065 11.342-25.482 25.379-25.602h972.861c14.048 0.12 25.39 11.536 25.39 25.602 0 9.32-4.98 17.477-12.425 21.955l-0.116 0.064-486.425 281.575c-3.69 2.184-8.133 3.474-12.877 3.474-0.656 0-1.306-0.025-1.949-0.073l0.086 0.005zM512.127 917.49l391.181-226.393h-782.363zM484.157 588.671c-31.469 0-57.449-25.979-57.449-57.448v-294.426c0-31.469 25.98-57.448 57.449-57.448h55.559c31.469 0 57.449 25.979 57.449 57.448v294.426c0 31.469-25.98 57.448-57.449 57.448zM484.157 537.648h55.559c3.99 0 6.425-2.438 6.425-6.425v-294.426c0-3.986-2.435-6.425-6.425-6.425h-55.559c-3.99 0-6.425 2.438-6.425 6.425v294.426c0 3.986 2.435 6.425 6.425 6.425zM1023.874 70.499c0 31.469-25.98 57.448-57.449 57.448h-908.976c-31.469 0-57.449-25.979-57.449-57.448v-64.252c0-31.471 25.98-57.45 57.449-57.45h908.976c31.469 0 57.449 25.979 57.449 57.45zM972.85 70.499v-64.252c0-3.986-2.435-6.425-6.425-6.425h-908.976c-3.99 0-6.425 2.438-6.425 6.425v64.252c0 3.986 2.435 6.425 6.425 6.425h908.976c3.99 0 6.425-2.438 6.425-6.425zM407.055 588.671c-12.779-1.563-22.58-12.349-22.58-25.423 0-14.007 11.249-25.387 25.205-25.6h204.87c0.646-0.058 1.397-0.091 2.156-0.091 14.14 0 25.603 11.463 25.603 25.603s-11.463 25.603-25.603 25.603c-0.759 0-1.51-0.033-2.252-0.098l0.096 0.007h-204.85c-0.395 0.022-0.858 0.034-1.323 0.034s-0.928-0.012-1.387-0.037l0.064 0.003zM407.055 230.373c-12.779-1.563-22.58-12.349-22.58-25.423 0-14.007 11.249-25.387 25.205-25.6h204.87c0.646-0.058 1.397-0.091 2.156-0.091 14.14 0 25.603 11.463 25.603 25.603s-11.463 25.603-25.603 25.603c-0.759 0-1.51-0.033-2.252-0.098l0.096 0.007h-204.85c-0.395 0.022-0.858 0.034-1.323 0.034s-0.928-0.012-1.387-0.037l0.064 0.003zM798.236 588.671c-31.469 0-57.449-25.979-57.449-57.448v-294.426c0-31.469 25.98-57.448 57.449-57.448h55.559c31.469 0 57.449 25.979 57.449 57.448v294.426c0 31.469-25.98 57.448-57.449 57.448zM798.236 537.648h55.559c3.99 0 6.425-2.438 6.425-6.425v-294.426c0-3.986-2.435-6.425-6.425-6.425h-55.559c-3.99 0-6.425 2.438-6.425 6.425v294.426c0 3.986 2.435 6.425 6.425 6.425zM721.134 588.671c-12.806-1.537-22.637-12.335-22.637-25.43 0-13.894 11.068-25.204 24.869-25.592l0.036-0.001h204.85c0.646-0.058 1.397-0.091 2.156-0.091 14.14 0 25.603 11.463 25.603 25.603s-11.463 25.603-25.603 25.603c-0.759 0-1.51-0.033-2.252-0.098l0.096 0.007h-204.85c-0.338 0.016-0.735 0.025-1.134 0.025s-0.795-0.009-1.19-0.027l0.056 0.002zM721.134 230.373c-12.806-1.537-22.637-12.335-22.637-25.43 0-13.894 11.068-25.204 24.869-25.592l0.036-0.001h204.85c0.646-0.058 1.397-0.091 2.156-0.091 14.14 0 25.603 11.463 25.603 25.603s-11.463 25.603-25.603 25.603c-0.759 0-1.51-0.033-2.252-0.098l0.096 0.007h-204.85c-0.338 0.016-0.735 0.025-1.134 0.025s-0.795-0.009-1.19-0.027l0.056 0.002zM168.567 588.671c-31.469 0-57.827-25.979-57.827-57.448v-294.426c0-31.469 26.358-57.448 57.827-57.448h55.181c31.469 0 57.827 25.979 57.827 57.448v294.426c0 31.469-26.358 57.448-57.827 57.448zM168.567 537.648h55.181c3.99 0 6.425-2.438 6.425-6.425v-294.426c0-3.986-2.435-6.425-6.425-6.425h-55.181c-3.99 0-6.425 2.438-6.425 6.425v294.426c0 3.986 2.435 6.425 6.425 6.425zM91.087 588.671c-12.779-1.563-22.58-12.349-22.58-25.423 0-14.007 11.249-25.387 25.205-25.6h204.87c0.646-0.058 1.397-0.091 2.156-0.091 14.14 0 25.603 11.463 25.603 25.603s-11.463 25.603-25.603 25.603c-0.759 0-1.51-0.033-2.252-0.098l0.096 0.007h-204.85c-0.395 0.022-0.858 0.034-1.323 0.034s-0.928-0.012-1.387-0.037l0.064 0.003zM91.087 230.373c-12.779-1.563-22.58-12.349-22.58-25.423 0-14.007 11.249-25.387 25.205-25.6h204.87c0.646-0.058 1.397-0.091 2.156-0.091 14.14 0 25.603 11.463 25.603 25.603s-11.463 25.603-25.603 25.603c-0.759 0-1.51-0.033-2.252-0.098l0.096 0.007h-204.85c-0.395 0.022-0.858 0.034-1.323 0.034s-0.928-0.012-1.387-0.037l0.064 0.003z" />
<glyph unicode="&#xe90a;" glyph-name="bar-code" data-tags="bar-code" d="M870.507 819.134v-716.667h51.408v716.667zM717.065 819.134v-716.667h51.030v716.667zM256.032 819.134v-716.667h51.408v716.667zM358.343 819.134v-716.667h51.408v716.667zM0 819.134v-716.667h51.030v716.667zM972.97 819.134v-716.667h51.030v716.667zM921.562 819.134v-716.667h51.408v716.667zM563.219 819.134v-716.667h51.408v716.667zM51.206 819.134v-716.667h51.030v716.667zM153.619 819.134v-716.667h51.408v716.667zM665.48 819.134v-716.667h51.408v716.667zM460.655 819.134v-716.667h51.408v716.667zM307.238 819.134v-716.667h51.408v716.667z" />
<glyph unicode="&#xe90b;" glyph-name="bars" data-tags="bars" d="M0 819.024v-51.023h1023.874v51.023zM0 511.824v-51.023h1023.874v51.023zM0 204.626v-51.025h1023.874v51.025z" />
<glyph unicode="&#xe90c;" glyph-name="bathroom" data-tags="bathroom" d="M64.33 345.156l52.173-244.326c10.802-50.495 55.42-87.647 106.106-87.647h3.206v-48.281c0-8.282 6.806-16.1 14.945-16.1h129.073c4.702 0.019 9.116 2.303 11.885 6.192l41.734 58.179h177.12l41.725-58.179c2.771-3.89 7.185-6.173 11.885-6.192h129.073c8.137 0 14.945 7.818 14.945 16.1v48.281h3.207c50.686 0 95.305 37.152 106.114 87.647l52.173 244.076c38.799 5.438 66.83 40.605 64.126 80.445-2.705 39.84-35.224 70.729-74.393 70.653h-152.303c-3.042 19.634-19.539 34.141-39.021 34.333h-210.576c-19.482-0.192-35.972-14.707-39.013-34.333h-341.621v358.781c0 48.593 38.627 87.98 86.279 87.98s86.279-39.387 86.279-87.98v-51.921h-20.608c-31.475-0.048-57.023-25.96-57.253-58.048v-23.494h-8.557c-3.872 0.043-7.595-1.548-10.341-4.296-2.746-2.787-4.275-6.599-4.25-10.546v-49.413c-0.074-8.282 6.461-15.075 14.591-15.152h203.712c8.269 0.017 15.034 6.734 15.282 15.152v49.413c-0.271 8.36-7.069 14.978-15.282 14.842h-9.972v23.494c0.123 15.307-5.745 30.043-16.299 40.932-10.546 10.895-24.915 17.048-39.933 17.106h-21.627v51.921c0 65.179-51.82 118.023-115.74 118.023s-115.74-52.844-115.74-118.023v-358.781h-62.843c-39.152 0.161-71.704-30.697-74.409-70.52-2.713-39.832 25.351-74.97 64.15-80.329zM442.563 671.967h-174.662v19.312h174.662zM417.311 744.816v-23.494h-126.261v23.494c0.213 15.52 12.584 27.972 27.792 28.005h71.696c7.201-0.048 14.090-3.038 19.111-8.302 5.031-5.244 7.793-12.346 7.661-19.694zM362.359-21.15h-107.084v34.333h131.662zM768.739-21.15h-107.076l-24.587 34.333h131.662zM878.733 106.848c-8.081-36.999-40.155-63.387-77.327-63.621h-578.797c-37.172 0.194-69.246 26.621-77.327 63.621l-50.644 236.8h413.161v-149.022c0-8.282 6.732-14.068 14.879-14.068h260.275c8.137 0 15.249 5.786 15.249 14.068v149.022h131.177zM537.26 238.5h231.479v-27.897h-231.479zM994.538 419.826c-0.018-25.414-20.18-46.036-45.112-46.137h-151.226v92.274h151.226c24.932-0.093 45.096-20.714 45.112-46.137zM547.527 500.296h210.576c5.689 0.043 10.382-4.509 10.637-10.295v-221.461h-231.479v221.461c0.082 5.728 4.66 10.295 10.268 10.295zM74.588 465.964h433.21v-92.274h-433.21c-24.989 0-45.244 20.663-45.244 46.137 0 25.482 20.254 46.137 45.244 46.137z" />
<glyph unicode="&#xe90d;" glyph-name="bed" data-tags="bed" d="M980.662 347.602v445.025c0 71.118-56.055 128.972-124.953 128.972h-67.242v-30.939h67.242c52.367 0 94.977-43.977 94.977-98.035v-294.182c-5.898 2.593-12.391 4.025-19.202 4.025h-66.203v120.457c0 20.586-16.226 37.34-36.172 37.34h-252.875c-19.945 0-36.172-16.739-36.172-37.34v-120.457h-56.125v30.012c-29.975 0-25.127 0-29.975 0v-30.012h-265.266v120.457c0 3.522 2.781 6.405 6.196 6.405h252.875c3.414 0 6.196-2.845 6.196-6.405v-90.445c29.975 0 25.131 0 29.975 0v90.445c0 20.586-16.226 37.34-36.172 37.34h-252.875c-19.945 0-36.172-16.739-36.172-37.34v-120.457h-66.203c-6.812 0-13.304-1.548-19.204-4.025v294.182c0 54.058 42.61 98.035 94.977 98.035h620.178v30.939h-620.178c-68.898 0-124.953-57.854-124.953-128.972v-445.025c-24.102-1.287-43.336-21.907-43.336-47.089v-336.235c0-8.553 6.711-15.481 14.991-15.481h69.82c7.164 0 13.327 5.244 14.711 12.482l17.101 89.925h790.75l17.101-89.925c1.374-7.237 7.547-12.482 14.711-12.482h69.82c8.28 0 14.991 6.928 14.991 15.481v336.235c0 25.182-19.235 45.826-43.336 47.089zM570.037 622.942c0 3.522 2.781 6.405 6.196 6.405h252.867c3.421 0 6.202-2.845 6.202-6.405v-120.457h-265.266zM92.514 471.537h838.969c10.585 0 19.202-8.902 19.202-19.814v-104.057h-877.375v104.057c0 10.933 8.609 19.814 19.204 19.814zM72.483-20.256h-42.508v71.474h56.094zM994.022-20.256h-42.508l-13.586 71.474h56.094zM994.022 82.158h-964.047v218.355c0 8.94 7.048 16.197 15.711 16.197h932.625c8.664 0 15.711-7.257 15.711-16.197z" />
<glyph unicode="&#xe90e;" glyph-name="bell" data-tags="bell" d="M396.095 129.843c0 0-18.008-40.183-13.228-85.418 2.39-22.618 11.605-47.873 33.26-66.52s53.558-29.102 96-29.102c42.442 0 73.968 10.45 95.622 29.102 21.654 18.655 30.87 43.902 33.26 66.52 4.78 45.235-13.228 85.418-13.228 85.418l-47.244-20.032c0 0 12.734-32.578 9.827-60.095-1.453-13.759-5.845-24.622-15.874-33.259-10.029-8.631-28.004-16.623-62.362-16.623s-52.712 7.992-62.74 16.623c-10.029 8.631-14.042 19.502-15.496 33.259-2.908 27.517 9.449 60.095 9.449 60.095zM511.37 818.85c-80.589 0-139.222-18.771-180.283-51.023s-62.972-76.654-74.457-121.7c-11.485-45.048-13.492-91.376-15.118-132.285s-3.697-76.818-10.205-95.999c-34.086-95.165-150.047-275.905-150.047-275.905l-26.079-39.685h913.512l-27.969 40.44c0 0-30.54 44.109-64.63 100.914s-71.349 127.273-83.528 172.725l-0.377 0.774-0.377 1.161c-6.741 19.080-8.875 54.758-10.583 95.622-1.707 40.866-3.665 87.241-15.118 132.285-11.453 45.042-33.357 89.441-74.457 121.7s-99.458 51.023-180.283 51.023zM511.37 767.826c73.024 0 118.727-16.371 148.913-40.063s46.629-56.018 56.315-94.111c9.686-38.091 11.906-81.393 13.606-122.079 1.67-39.981 2.061-76.71 12.85-108.471 0.037-0.139 0.341-0.194 0.377-0.387 15.336-56.873 53.483-127.323 88.441-185.574 21.401-35.66 28.402-44.897 40.819-63.497h-727.18c24.624 38.215 100.467 152.609 134.173 247.182l0.377 0.387c10.863 32.018 11.235 69.72 12.85 110.362s3.518 83.992 13.228 122.079c9.71 38.089 26.145 70.413 56.315 94.111s76.152 40.063 148.913 40.063zM512.126 972.678c-31.36 0-57.331-11.843-73.323-30.236-15.992-18.403-22.324-40.866-24.945-61.229-5.241-40.728 4.157-78.237 4.157-78.237l49.89 12.094c0 0-7.055 31.324-3.402 59.718 1.827 14.204 6.306 26.488 12.85 34.016s14.932 12.849 34.772 12.849c19.84 0 27.85-5.322 34.394-12.849s11.023-19.819 12.85-34.016c3.654-28.394-3.402-59.718-3.402-59.718l49.89-12.094c0 0 9.777 37.508 4.535 78.237-2.621 20.363-8.953 42.836-24.945 61.229-15.992 18.403-41.963 30.236-73.323 30.236z" />
<glyph unicode="&#xe90f;" glyph-name="blogger" data-tags="blogger" d="M371.222 597.908c10.972 11.204 14.172 11.649 83.205 11.649 62.175 0 64.232-0.194 73.376-4.799 13.258-6.637 18.973-16.003 18.973-31.088 0-13.488-5.486-22.86-17.373-30.631-6.4-4.122-10.286-4.335-71.090-4.799-37.488-0.194-67.433 0.387-72.004 1.742-23.544 6.637-32.231 40.461-15.087 57.833zM511.573 381.894c-123.207 0-127.55-0.387-137.608-9.366-8.001-7.083-13.030-21.486-11.658-31.773 1.6-10.74 10.972-23.088 21.030-27.43 5.029-2.283 32.23-3.89 128.693-2.748l109.492 1.355 21.030 3.425c20.573 11.649 24.001 39.774 7.086 55.774-12.115 10.74-11.429 10.74-138.065 10.74zM1022.232 84.505c-8.001-64.917-52.575-115.207-116.807-131.435-16.458-4.122-22.173-4.335-395.223-4.122-360.707 0-379.222 0.194-393.166 4.122-19.201 5.031-35.659 12.578-50.974 22.858-12.801 8.689-31.773 26.974-38.859 37.487-8.686 12.791-18.744 34.975-22.859 50.29-4.115 15.307-4.343 21.488-4.343 396.366 0 372.822 0 380.822 4.115 397.051 14.401 56.461 59.204 99.664 117.036 112.465 16.687 3.657 759.131 4.335 777.189 0.774 48.46-9.83 86.634-39.087 108.806-83.204 17.601-34.973 16.001 3.425 16.687-412.825 0.457-264.703 0-376.022-1.6-389.739zM827.021 507.845c-2.514 11.437-9.601 21.944-17.601 26.287-2.514 1.355-18.287 2.98-35.431 3.89-28.344 1.355-31.545 1.742-40.688 7.083-14.172 8.224-18.058 17.377-18.287 41.831 0 46.631-19.43 90.062-57.832 129.15-27.43 27.889-57.832 46.861-92.805 57.376-8.229 2.516-26.973 3.425-89.605 4.122-98.063 1.161-120.007-0.968-153.381-14.165-61.718-24.458-105.835-76.346-122.064-142.638-2.972-12.346-3.657-32.458-4.343-146.98-0.913-143.551 0-164.808 9.143-193.154 22.173-70.175 84.805-122.063 147.666-133.494 21.030-3.89 279.331-4.799 305.618-1.161 45.946 6.173 82.062 24.686 115.893 59.203 24.459 24.917 39.774 52.117 49.831 88.005 7.315 24.917 6.629 202.069 3.886 214.641z" />
<glyph unicode="&#xe910;" glyph-name="cake" data-tags="cake" d="M512.126 767.821c-136.864 0-261.023-20.158-353.008-54.048-45.992-16.952-84.156-37.133-112.252-61.604-28.096-24.473-46.866-54.688-46.866-88.82 0-34.13 18.77-64.724 46.866-89.197 28.096-24.472 66.26-44.661 112.252-61.606 91.985-33.888 216.144-54.046 353.008-54.046s260.645 20.158 352.63 54.046c45.992 16.952 84.156 37.135 112.252 61.606 28.096 24.473 46.866 55.068 46.866 89.197 0 34.132-18.77 64.347-46.866 88.82-28.096 24.472-66.26 44.661-112.252 61.604-91.985 33.89-215.766 54.048-352.63 54.048zM512.126 716.797c131.767 0 250.809-20.056 334.866-51.023 42.029-15.481 75.248-33.752 96.378-52.157 21.13-18.403 29.48-34.913 29.48-50.269 0-15.345-8.35-32.241-29.48-50.646-21.13-18.403-54.349-36.672-96.378-52.157-84.057-30.968-203.099-51.023-334.866-51.023s-251.187 20.056-335.244 51.023c-42.029 15.481-75.248 33.752-96.378 52.157-21.13 18.403-29.48 35.293-29.48 50.646 0 15.365 8.35 31.862 29.48 50.269 21.13 18.403 54.349 36.672 96.378 52.157 84.057 30.968 203.477 51.023 335.244 51.023zM0.378 229.993l-0.378-25.7c-0.517-44.252 30.265-81.598 75.969-110.739 45.703-29.143 109.017-52.382 186.331-68.788 154.627-32.812 342.402-32.942 497.386-0.387 77.492 16.274 141.097 39.374 187.087 68.41s77.102 66.108 77.102 110.362v25.702h-51.024v-25.702c0-19.274-15.089-43.155-53.291-67.274-38.203-24.121-96.74-46.197-170.079-61.606-146.677-30.819-330.309-30.664-476.598 0.387-73.145 15.52-131.456 37.839-169.323 61.984s-52.761 47.991-52.535 67.276l0.378 25.323zM0 560.326v-332.598h51.024v332.598zM972.85 560.326v-332.598h51.024v332.598zM486.425 837.742v-223.371h51.024v223.371zM512.126 972.672l-16.63-14.359c0 0-18.405-15.365-35.15-35.906-8.372-10.256-16.705-21.704-22.299-35.149-5.595-13.449-9.116-32.189 0.757-49.135 16.007-27.475 46.13-34.393 73.323-34.393s57.316 6.908 73.323 34.393c9.872 16.952 6.351 35.689 0.757 49.135-5.595 13.449-13.927 24.884-22.299 35.149-16.745 20.532-35.15 35.906-35.15 35.906zM512.126 902.751c5.115-5.089 6.506-5.999 12.094-12.849 6.561-8.050 11.957-16.526 14.362-22.298 2.405-5.786 1.308-5.689 2.646-3.406-1.060-1.742-13.628-9.443-29.102-9.443s-28.042 7.624-29.102 9.443c1.339-2.303-0.138-2.38 2.268 3.406s7.801 14.262 14.362 22.298c5.636 6.908 7.331 7.74 12.472 12.849zM716.976 793.521v-230.173h51.024v230.173zM742.299 937.144l-16.63-14.362c0 0-18.405-15.752-35.15-36.283-8.372-10.275-16.705-21.704-22.299-35.149-5.595-13.449-9.116-31.809 0.757-48.755 16.006-27.477 46.13-34.772 73.323-34.772s57.316 7.295 73.323 34.772c9.871 16.952 6.351 35.31 0.757 48.755-5.595 13.449-13.927 24.884-22.299 35.149-16.745 20.532-35.15 36.283-35.15 36.283zM742.299 866.845c5.085-5.070 6.556-5.689 12.094-12.482 6.561-8.050 12.335-16.894 14.74-22.678 2.405-5.786 0.929-5.689 2.268-3.406-1.060-1.742-13.628-9.076-29.102-9.076s-28.043 7.257-29.102 9.076c1.339-2.303-0.138-2.38 2.268 3.406s8.179 14.629 14.74 22.678c5.539 6.792 7.009 7.392 12.094 12.482zM255.874 793.521v-230.173h51.402v230.173zM281.575 937.144l-16.63-14.359c0 0-18.405-15.752-35.15-36.283-8.372-10.275-16.705-21.704-22.299-35.149-5.595-13.449-9.116-31.809 0.757-48.755 16.007-27.477 46.13-34.772 73.323-34.772s57.316 7.295 73.323 34.772c9.872 16.952 6.35 35.31 0.757 48.755-5.595 13.449-13.927 24.884-22.299 35.149-16.745 20.532-35.15 36.283-35.15 36.283zM281.575 866.845c5.085-5.070 6.556-5.689 12.094-12.482 6.561-8.050 12.335-16.894 14.74-22.678 2.405-5.786 0.929-5.689 2.268-3.406-1.060-1.742-13.628-9.076-29.102-9.076s-28.042 7.257-29.102 9.076c1.339-2.303-0.138-2.38 2.268 3.406s8.179 14.629 14.74 22.678c5.539 6.792 7.009 7.392 12.094 12.482z" />
<glyph unicode="&#xe911;" glyph-name="calendar" data-tags="calendar" d="M0 870.246v-921.449h1023.874v921.449zM51.024 819.223h921.827v-819.403h-921.827zM313.701 972.672v-204.852h51.024v204.852zM662.551 972.672v-204.852h51.024v204.852zM153.449 307.096v-204.85h204.85v204.85zM204.85 256.073h102.425v-102.426h-102.425zM51.024 716.797v-51.023h921.827v51.023zM409.701 307.096v-204.85h204.85v204.85zM460.724 256.073h102.425v-102.426h-102.425zM665.575 307.096v-204.85h204.85v204.85zM716.976 256.073h102.047v-102.426h-102.047zM409.701 563.348v-204.85h204.85v204.85zM460.724 511.948h102.425v-102.426h-102.425zM665.575 563.348v-204.85h204.85v204.85zM716.976 511.948h102.047v-102.426h-102.047z" />
<glyph unicode="&#xe912;" glyph-name="camera" data-tags="camera" d="M512.126 614.372c-126.943 0-230.551-103.608-230.551-230.55 0-126.944 103.608-230.175 230.551-230.175s230.173 103.231 230.173 230.175c0 126.942-103.23 230.55-230.173 230.55zM512.126 563.348c99.273 0 179.15-80.255 179.15-179.527s-79.877-179.149-179.15-179.149-179.15 79.876-179.15 179.149c0 99.272 79.877 179.527 179.15 179.527zM296.693 895.947l-153.827-153.449h-142.866v-716.977h1023.874v716.977h-347.717l-153.449 153.449zM317.858 844.924h183.685l153.449-153.826h317.858v-614.174h-921.827v614.174h113.008zM624 365.301c-11.21 1.057-20.251 9.202-22.645 19.861l-0.032 0.171c-10.932 47.557-53.602 81.259-103.181 81.259-14.194 0-25.701 11.507-25.701 25.701s11.507 25.701 25.701 25.701v0c72.965 0 136.802-50.172 153.071-120.945 0.493-1.879 0.777-4.035 0.777-6.258 0-14.14-11.463-25.603-25.603-25.603-0.84 0-1.671 0.040-2.491 0.12l0.104-0.008z" />
<glyph unicode="&#xe913;" glyph-name="cart" data-tags="cart" d="M768 153.647c-56.251 0-102.425-46.174-102.425-102.424 0-56.252 46.174-102.426 102.425-102.426s102.425 46.174 102.425 102.426c0 56.25-46.174 102.424-102.425 102.424zM768 102.247c28.58 0 51.024-22.443 51.024-51.023 0-28.582-22.443-51.403-51.024-51.403s-51.024 22.821-51.024 51.403c0 28.58 22.443 51.023 51.024 51.023zM395.282 146.919c-52.545 20.164-112.167-6.386-132.339-58.922-20.172-52.54 6.369-112.154 58.914-132.318 52.547-20.166 112.167 6.386 132.339 58.922 20.172 52.54-6.367 112.154-58.914 132.318zM376.857 98.932c26.717-10.256 39.6-39.211 29.348-65.914s-39.343-39.956-66.060-29.704c-26.717 10.256-39.817 39.699-29.565 66.402s39.56 39.469 66.277 29.216zM100.913 844.924c-49.505-2.729-78.436-39.2-89.953-69.544s-10.961-58.582-10.961-58.582h51.024c0 0 0.425 20.65 7.937 40.44 7.512 19.792 16.999 34.747 44.976 36.283 33.075 1.742 48.118-14.939 60.094-36.283s15.496-44.219 15.496-44.219l54.425-407.811 658.772 54.803 51.024 331.087h80.126v51.401h-124.346l-51.402-334.487-569.953-47.623-48 359.812v0.387c0 0-4.119 30.552-21.543 61.606s-53.592 65.719-107.717 62.74zM204.85 742.498v-51.401h716.598v51.401zM281.575 336.198l-51.024-6.812c2.197-17.029 9.058-41.054 15.496-63.874s12.472-42.708 12.472-42.708l5.669-18.132h681.449v51.401h-643.653c-2.3 7.702-3.309 10.663-6.803 23.055-6.257 22.18-12.603 49.295-13.606 57.071z" />
<glyph unicode="&#xe914;" glyph-name="cart-arrow" data-tags="cart-arrow" d="M768 153.647c-56.251 0-102.425-46.174-102.425-102.424 0-56.252 46.174-102.426 102.425-102.426s102.425 46.174 102.425 102.426c0 56.25-46.174 102.424-102.425 102.424zM768 102.247c28.58 0 51.024-22.443 51.024-51.023 0-28.582-22.443-51.403-51.024-51.403s-51.024 22.821-51.024 51.403c0 28.58 22.443 51.023 51.024 51.023zM395.281 146.919c-52.545 20.166-112.167-6.386-132.339-58.922-20.172-52.54 6.369-112.154 58.914-132.318 52.547-20.164 112.167 6.386 132.339 58.922 20.172 52.54-6.367 112.154-58.914 132.318zM376.857 98.932c26.717-10.256 39.6-39.211 29.348-65.914-10.252-26.701-39.343-39.956-66.060-29.704-26.717 10.256-39.817 39.699-29.565 66.402s39.56 39.471 66.277 29.216zM100.913 844.924c-49.505-2.729-78.436-39.2-89.953-69.544s-10.961-58.582-10.961-58.582h51.024c0 0 0.425 20.65 7.937 40.44 7.512 19.792 16.999 34.747 44.976 36.283 33.070 1.742 48.117-14.939 60.094-36.283s15.496-44.219 15.496-44.219l54.425-407.811 658.772 54.803 51.024 331.087h80.126v51.401h-124.346l-51.402-334.487-569.953-47.623-48 359.812v0.387c0 0-4.118 30.552-21.543 61.606s-53.596 65.719-107.717 62.74zM537.449 972.672v-409.324h51.402v409.324zM281.575 336.198l-51.024-6.812c2.197-17.029 9.058-41.054 15.496-63.874s12.472-42.708 12.472-42.708l5.669-18.132h681.449v51.401h-643.653c-2.3 7.702-3.309 10.663-6.803 23.055-6.257 22.18-12.603 49.295-13.606 57.071zM427.843 719.822l-36.283-36.283 171.591-171.591 171.591 171.591-35.906 36.283-135.685-135.307z" />
<glyph unicode="&#xe915;" glyph-name="cash-payment" data-tags="cash-payment" d="M512.199 716.799c-141.058 0-256.199-114.741-256.199-255.801 0-141.057 115.141-256.198 256.199-256.198s255.801 115.141 255.801 256.198c0 141.060-114.743 255.801-255.801 255.801zM512.199 663.094c111.933 0 202.095-90.161 202.095-202.096 0-111.931-90.162-202.092-202.095-202.092s-202.095 90.161-202.095 202.092c0 111.935 90.162 202.096 202.095 202.096zM57.449 819.223c-31.469 0-57.449-25.981-57.449-57.45v-601.7c0-31.469 25.98-57.827 57.449-57.827h908.976c31.469 0 57.449 26.358 57.449 57.827v601.7c0 31.469-25.98 57.45-57.449 57.45zM57.449 767.821h908.976c3.99 0 6.425-2.051 6.425-6.038v-601.7c0-3.986-2.435-6.425-6.425-6.425h-908.976c-3.99 0-6.425 2.438-6.425 6.425v601.7c0 3.986 2.435 6.038 6.425 6.038zM511.748 640.451c-14.021-0.156-25.327-11.558-25.327-25.601 0-0.168 0.002-0.336 0.005-0.504v0.025-307.275c-0.058-0.645-0.091-1.396-0.091-2.154 0-14.14 11.463-25.603 25.603-25.603s25.603 11.463 25.603 25.603c0 0.758-0.033 1.509-0.098 2.25l0.007-0.096v307.275c0.003 0.142 0.004 0.309 0.004 0.477 0 14.14-11.463 25.603-25.603 25.603-0.036 0-0.072 0-0.108 0h0.006z" />
<glyph unicode="&#xe916;" glyph-name="chart" data-tags="chart" d="M0 460.923v-512.125h255.874v512.125zM51.024 409.522h153.827v-409.701h-153.827zM384 972.672v-1023.875h255.874v1023.875zM435.024 921.647h153.827v-921.826h-153.827zM768 716.797v-768h255.874v768zM819.024 665.774h153.827v-665.953h-153.827z" />
<glyph unicode="&#xe917;" glyph-name="chart-pie" data-tags="chart-pie" d="M435.024 819.223c-239.985-0.002-435.024-195.356-435.024-435.402 0-240.048 195.039-435.024 435.024-435.024 232.283 0.194 423.923 183.637 434.268 415.749l1.134 26.834h-409.701v427.843zM409.323 757.238v-417.26h396.472c-23.928-190.147-175.915-339.917-370.772-340.157-212.306 0.002-384 171.616-384 384.001 0 202.334 159.993 358.221 358.299 373.416zM563.15 972.672v-460.725h460.724v25.7c0 240.051-194.973 435.024-435.024 435.024zM614.551 911.066c188.55-14.436 333.291-159.167 347.717-347.717h-347.717z" />
<glyph unicode="&#xe918;" glyph-name="check" data-tags="check" d="M986.457 793.521l-551.811-596.409-403.276 312.568-31.37-40.442 440.315-341.291 583.559 630.804z" />
<glyph unicode="&#xe919;" glyph-name="check-circle" data-tags="check-circle" d="M512.126 972.672c-282.467 0-512.126-229.282-512.126-511.75 0-282.465 229.659-512.125 512.126-512.125s511.748 229.66 511.748 512.125c0 282.467-229.281 511.75-511.748 511.75zM512.126 921.647c254.796 0 460.724-205.928 460.724-460.725 0-254.795-205.928-461.102-460.724-461.102s-461.102 206.307-461.102 461.102c0 254.797 206.306 460.725 461.102 460.725zM806.551 691.097l-345.449-390.048-249.827 202.204-32.126-39.683 288-233.197 377.575 426.709z" />
<glyph unicode="&#xe91a;" glyph-name="checkmark" data-tags="checkmark" d="M947.528 819.223l-514.772-576.001-368.504 295.938-64.252-80.125 444.472-356.787 579.402 648.944z" />
<glyph unicode="&#xe91b;" glyph-name="chevron-down" data-tags="chevron-down" d="M512.189 204.738l-512.126 474.33 34.772 37.795 477.354-442.204 476.976 442.204 34.772-37.795z" />
<glyph unicode="&#xe91c;" glyph-name="chevron-left" data-tags="chevron-left" d="M255.937 460.99l474.33-512.127 37.795 34.772-442.204 477.355 442.204 476.976-37.795 34.772z" />
<glyph unicode="&#xe91d;" glyph-name="chevron-right" data-tags="chevron-right" d="M768.063 460.99l-474.33-512.127-37.795 34.772 442.204 477.355-442.204 476.976 37.795 34.772z" />
<glyph unicode="&#xe91e;" glyph-name="chevron-up" data-tags="chevron-up" d="M512.126 716.797l-512.126-474.33 34.772-37.795 477.354 442.204 476.976-442.204 34.772 37.795z" />
<glyph unicode="&#xe91f;" glyph-name="chrome" data-tags="chrome" d="M271.488 540.245l-157.731 242.378c98.273 122.221 245.681 189.525 396.393 190.145 87.33 0.62 176.519-21.678 257.655-68.543 89.602-52.026 157.731-126.763 201.087-212.648l-423.852 22.297c-119.95 7.019-234.119-60.491-273.552-173.628zM339.412 460.759c0-95.382 77.214-172.596 172.596-172.596s172.596 77.214 172.596 172.596c0 95.383-77.214 172.596-172.596 172.596s-172.596-77.007-172.596-172.596zM989.537 644.917l-288.417-14.865c78.246-91.459 79.485-223.384 13.626-324.547l-231.436-355.928c96.002-5.161 194.893 15.897 284.494 67.923 221.732 128.002 311.54 396.393 221.732 627.416zM276.030 362.487l-192.623 378.844c-52.646-80.517-83.407-177.138-83.407-280.572 0-256.004 187.461-468.033 432.522-505.607l131.512 257.655c-118.918-22.297-233.707 42.942-288.004 149.68z" />
<glyph unicode="&#xe920;" glyph-name="circle" data-tags="circle" d="M512 972.8c-282.466 0-512-229.534-512-512s229.534-512 512-512c282.467 0 512 229.533 512 512s-229.533 512-512 512zM512 921.6c254.796 0 460.8-206.004 460.8-460.8s-206.004-460.8-460.8-460.8c-254.796 0-460.8 206.004-460.8 460.8s206.004 460.8 460.8 460.8z" />
<glyph unicode="&#xe921;" glyph-name="circle-f" data-tags="circle-f" d="M1024 460.8c0-282.77-229.23-512-512-512v0c-282.77 0-512 229.23-512 512v0c0 282.77 229.23 512 512 512v0c282.77 0 512-229.23 512-512v0z" />
<glyph unicode="&#xe922;" glyph-name="circles" data-tags="circles" d="M213.921 576.199c-3.293-0.095-6.397-0.797-9.239-1.998l0.168 0.063c-117.458-46.547-197.524-157.298-204.472-283.464s60.333-245.085 171.968-304.253c111.636-59.166 247.61-48.248 348.094 28.348 6.184 4.728 10.133 12.109 10.133 20.412 0 14.152-11.473 25.625-25.625 25.625-5.853 0-11.247-1.962-15.561-5.264l0.062 0.045c-84.698-64.561-199.195-74.059-293.291-24.189-94.096 49.872-150.235 149.902-144.378 256.252s72.588 199.633 171.591 238.867c9.702 3.788 16.451 13.062 16.451 23.911 0 14.14-11.463 25.603-25.603 25.603-0.105 0-0.209-0.001-0.313-0.002h0.016zM797.102 579.222c-12.397-1.928-21.773-12.526-21.773-25.314 0-11.144 7.12-20.625 17.058-24.142l0.179-0.055c139.903-50.431 213.378-202.973 165.921-343.936s-198.248-217.573-340.157-173.102c-141.91 44.471-221.738 193.533-180.283 336.378 0.771 2.33 1.216 5.012 1.216 7.798 0 14.14-11.463 25.603-25.603 25.603-11.807 0-21.747-7.992-24.706-18.862l-0.042-0.179c-49.059-169.048 46.347-347.243 214.299-399.875s347.492 39.161 403.654 205.984c56.162 166.825-31.337 348.503-196.913 408.19-2.782 1.128-6.008 1.783-9.388 1.783-1.221 0-2.422-0.085-3.598-0.251l0.135 0.016zM512.126 972.672c-178.655 0-324.283-145.231-324.283-323.906 0-178.677 145.629-324.283 324.283-324.283s323.905 145.606 323.905 324.283c0 178.675-145.251 323.906-323.905 323.906zM512.126 921.647c150.98 0 272.882-121.872 272.882-272.881 0-151.011-121.902-272.883-272.882-272.883s-272.882 121.872-272.882 272.883c0 151.009 121.902 272.881 272.882 272.881z" />
<glyph unicode="&#xe923;" glyph-name="clock" data-tags="clock" d="M486.425 870.246v-306.898h51.024v306.898zM512.126 972.672c-282.467 0-512.126-229.282-512.126-511.75 0-282.465 229.659-512.125 512.126-512.125s511.748 229.66 511.748 512.125c0 282.467-229.281 511.75-511.748 511.75zM512.126 921.647c254.796 0 460.724-205.928 460.724-460.725 0-254.795-205.928-461.102-460.724-461.102s-461.102 206.307-461.102 461.102c0 254.797 206.306 460.725 461.102 460.725zM563.2 460.799c0-28.277-22.923-51.199-51.2-51.199v0c-28.277 0-51.2 22.923-51.2 51.199v0c0 0 0 0.001 0 0.001 0 28.277 22.923 51.2 51.2 51.2 0 0 0 0 0 0v0c28.277 0 51.2-22.923 51.2-51.2 0 0 0-0.001 0-0.001v0zM614.551 486.246v-51.023h204.472v51.023z" />
<glyph unicode="&#xe924;" glyph-name="close" data-tags="close" d="M892.872 870.401l-790.472-790.171 29.030-29.031 790.17 790.473zM131.43 870.401l-29.030-28.729 790.472-790.473 28.728 29.031z" />
<glyph unicode="&#xe925;" glyph-name="close-chip" data-tags="close-chip" d="M72.567 972.672l-72.567-72.19 951.685-951.685 72.189 72.567zM951.685 972.672l-951.685-951.308 72.567-72.567 951.307 951.685z" />
<glyph unicode="&#xe926;" glyph-name="close-circle" data-tags="close-circle" d="M512.126 972.672c-282.467 0-512.126-229.282-512.126-511.75 0-282.465 229.659-512.125 512.126-512.125s511.748 229.66 511.748 512.125c0 282.467-229.281 511.75-511.748 511.75zM512.126 921.647c254.796 0 460.724-205.928 460.724-460.725 0-254.795-205.928-461.102-460.724-461.102s-461.102 206.307-461.102 461.102c0 254.797 206.306 460.725 461.102 460.725zM757.417 742.498l-526.866-527.244 35.906-35.904 527.244 526.865zM266.457 742.498l-35.906-36.283 526.866-526.865 36.283 35.904z" />
<glyph unicode="&#xe927;" glyph-name="cog" data-tags="cog" d="M512.126 665.774c-112.805 0-204.85-92.046-204.85-204.852 0-112.804 92.046-204.85 204.85-204.85s204.85 92.046 204.85 204.85c0 112.806-92.046 204.852-204.85 204.852zM512.126 614.372c85.134 0 153.449-68.314 153.449-153.449s-68.315-153.826-153.449-153.826-153.827 68.693-153.827 153.826c0 85.136 68.693 153.449 153.827 153.449zM425.197 972.672v-143.623c-2.031-1.935-5.374-4.896-10.583-8.321-11.47-7.528-28.54-16.468-46.11-23.812-17.571-7.353-36.109-13.526-49.512-16.255-6.191-1.355-10.856-1.548-13.606-1.548-30.305 30.368-84.283 84.661-84.283 84.661l-18.142 18.132-121.323-121.702 18.142-18.132c0 0 55.355-55.294 85.417-85.418 0.258-2.38 0.119-7.412-0.756-13.604-1.75-12.365-6.375-29.191-12.472-45.353-6.098-16.158-13.769-31.763-20.409-41.953-2.971-4.567-5.566-7.431-7.181-9.076h-144.378v-171.968h150.047c-8.468 0-1.578 0.194 5.291-9.076 6.869-9.327 14.461-24.050 20.409-39.308 5.948-15.249 10.156-31.237 11.339-43.085 1.182-11.843-2.638-17.010 0.756-13.604-29.312-29.371-88.063-88.441-88.063-88.441l-18.142-17.764 121.323-121.702 18.142 18.132c0 0 54.933 55.248 85.039 85.416-0.187-0.015 0.524 0.025 0.377 0 2.714 0.194 7.917 0.194 14.362-0.774 13.228-2.090 31.214-7.45 48.378-14.359s33.805-15.636 44.598-23.432c10.793-7.799 11.339-15.674 11.339-7.934v-149.974h171.591v150.047c0-7.702 0.898 0.387 11.717 8.321 10.818 7.973 27.389 16.797 44.598 23.812 17.209 7.024 35.049 12.385 48.378 14.359 6.664 0.968 12.366 1.161 15.118 0.774 29.825-29.888 86.173-86.173 86.173-86.173l18.142-18.132 121.323 121.702-103.559 103.558c0.022-0.19-0.026 0.581 0 0.387-0.242 2.38-0.093 7.353 0.757 13.236 1.747 12.094 6.281 28.4 12.472 44.221 6.192 15.829 14.112 31.217 20.787 41.197 2.979 4.451 5.559 7.063 7.181 8.689h144v171.968h-144c-1.569 1.548-3.883 4.257-6.803 8.689-6.56 9.966-14.193 25.083-20.409 40.817s-11.113 32.311-13.228 44.221c-0.935 5.264-1.531 8.94-1.511 11.34l102.425 102.426-121.323 121.702-18.142-18.132c0 0-52.645-52.96-83.15-83.529-2.832 0.194-6.96 0.774-12.85 2.264-13.521 3.348-32.089 9.792-49.89 17.764s-35.128 17.377-46.866 25.323c-5.367 3.638-9.199 6.986-11.339 9.076v144zM476.598 921.647h68.787v-99.024c0-15.365 7.672-22.54 13.606-28.723 5.934-6.173 12.67-11.378 20.409-16.623 15.478-10.488 34.46-20.532 54.425-29.48 19.965-8.94 40.456-16.681 58.583-21.166 9.063-2.245 17.387-3.619 26.079-3.773 8.692-0.163 19.63-0.387 30.614 10.585 23.272 23.32 53.706 53.672 69.921 69.922l48.756-49.15-69.543-69.922c-9.705-9.714-10.87-19.682-11.339-27.968-0.468-8.282 0.385-16.468 1.891-24.946 3.011-16.952 9.024-35.751 16.252-54.046 7.228-18.287 15.825-35.831 25.323-50.269 4.749-7.218 9.293-13.546 15.496-19.274s14.64-12.462 28.346-12.462h98.646v-69.165h-98.646c-13.674 0-21.713-6.405-27.968-12.094s-11.405-12.404-16.252-19.655c-9.695-14.494-18.398-31.984-25.701-50.644-7.303-18.655-13.283-37.998-15.874-55.938-1.295-8.979-1.786-17.571-0.757-26.457 1.031-8.882 3.634-19.119 12.472-27.968l69.921-69.92-49.134-49.135c-16.234 16.274-46.284 46.613-69.543 69.922-9.121 9.134-19.767 11.785-29.102 12.849-9.336 0.968-18.721 0.194-28.346-1.161-19.25-2.845-40.154-9.095-60.472-17.377s-39.709-18.577-55.559-30.236c-15.85-11.669-32.504-24.032-32.504-49.512v-99.024h-68.787v99.024c0 25.518-17.019 38.048-32.882 49.512-15.863 11.456-35.027 21.371-55.181 29.48s-40.96 14.068-59.717 17.010c-9.378 1.548-18.195 2.322-27.213 1.548s-19.292-2.651-28.724-12.094c-23.273-23.322-53.707-53.674-69.921-69.922l-49.134 49.135c16.139 16.178 46.599 46.549 69.921 69.92 16.486 16.526 16.214 36.247 14.362 54.804s-7.44 38.344-14.74 57.071c-7.3 18.732-16.154 36.133-26.835 50.646s-22.081 30.236-46.488 30.236h-99.024v69.165h99.024c13.67 0 22.010 6.637 28.346 12.462s11.046 12.617 15.874 20.032c9.656 14.823 18.551 32.827 25.701 51.78 7.15 18.945 12.581 38.375 15.118 56.314 1.269 8.979 1.703 17.687 0.757 26.457-0.946 8.766-3.051 18.906-12.094 27.968-23.259 23.307-53.31 53.653-69.543 69.922l48.756 49.135c16.215-16.255 46.649-46.6 69.921-69.922 10.089-10.121 20.554-11.398 29.48-11.707 8.926-0.387 17.613 1.161 26.835 3.019 18.442 3.754 39.028 10.566 58.961 18.887 19.933 8.34 39.007 17.861 54.425 27.968 7.709 5.051 14.45 10.121 20.409 16.255 5.96 6.115 13.606 13.546 13.606 28.723z" />
<glyph unicode="&#xe928;" glyph-name="cog-f" data-tags="cog-f" d="M447.604 972.8v-131.174c0-26.022-147.475-89.493-168.345-68.581-30.854 30.917-92.562 92.754-92.562 92.754l-89.575-89.76c0 0 61.706-61.835 92.56-92.754 22.282-22.327-30.501-159.014-58.779-159.014h-130.903v-126.942h130.903c33.557 0 86.34-129.283 58.779-156.901-30.854-30.917-92.56-92.752-92.56-92.752l89.575-89.762 92.562 92.754c22.437 22.484 168.345-33.247 168.345-70.696v-131.172h126.68v131.172c0 37.448 145.57 95.632 170.455 70.696 30.854-30.917 92.562-92.754 92.562-92.754l89.577 89.762-92.562 92.752c-23.368 23.415 31.485 156.901 58.781 156.901h130.903v126.942h-130.903c-27.297 0-79.622 133.9-60.893 152.667l92.562 92.754-89.577 89.76c0 0-61.708-61.837-92.562-92.754-18.662-18.693-168.343 48.906-168.343 74.928v131.174zM512 660.321c0 0 0 0 0 0 109.966 0 199.111-89.329 199.111-199.522v0c0-110.193-89.145-199.522-199.111-199.522 0 0 0 0 0 0v0c0 0 0 0 0 0-109.966 0-199.111 89.329-199.111 199.522v0c0 110.193 89.145 199.522 199.111 199.522 0 0 0 0 0 0v0z" />
<glyph unicode="&#xe929;" glyph-name="cogs" data-tags="cogs" d="M661.417 972.672v-87.316c-1.148-0.968-2.264-1.935-4.536-3.406-6.48-4.257-16.617-9.327-26.835-13.604s-20.808-7.915-28.346-9.443c-2.836-0.581-4.223-0.581-5.669-0.774-18.136 18.171-48.756 48.755-48.756 48.755l-13.606 13.604-77.48-77.48 13.606-13.604c0 0 31.492-31.455 49.512-49.512 0.030-1.355 0.007-2.941-0.377-5.67-0.973-6.889-3.654-16.719-7.181-26.078-3.528-9.347-8.023-18.519-11.717-24.189-1.182-1.742-1.856-2.477-2.646-3.406h-87.685v-109.984h92.598c-7.61 0-3.767 1.355 0-3.773s8.301-13.546 11.717-22.298c3.415-8.766 5.778-18.074 6.425-24.568 0.648-6.483-2.067-8.495 1.511-4.915-17.35-17.397-52.157-52.157-52.157-52.157l-13.606-13.236 77.48-77.858 13.606 13.604c0 0 31.494 31.459 49.512 49.512 1.417 0.015 3.082-0.387 6.047-0.774 7.394-1.161 18.042-3.948 27.968-7.934s19.333-9.269 25.323-13.604c5.99-4.335 5.291-8.321 5.291-1.161v-92.977h109.606v92.977c0-7.179-0.716-2.903 5.291 1.548 6.008 4.412 15.379 9.559 25.323 13.604 9.944 4.064 20.544 7.218 27.969 8.321 3.183 0.387 5.42 0.387 6.803 0.387 17.954-17.997 49.89-49.889 49.89-49.889l13.606-13.604 77.48 77.858-63.118 62.74c-0.051 1.161-0.030 3.232 0.377 6.038 0.968 6.696 3.603 16.178 7.181 25.323 3.578 9.153 8.002 17.88 11.717 23.432 1.19 1.742 1.852 2.496 2.646 3.406h87.685v109.984h-87.685c-0.77 0.968-1.12 1.742-2.268 3.406-3.652 5.554-8.115 14.32-11.717 23.432-3.601 9.114-6.377 18.674-7.559 25.323-0.393 2.206-0.312 3.29-0.377 4.528l61.984 61.984-77.48 77.859-13.606-13.604c0 0-29.785-29.743-48-47.999-1.49 0.188-2.744 0.126-5.291 0.774-7.641 1.935-18.356 5.941-28.724 10.585s-20.558 10.237-27.213 14.746c-2.55 1.742-3.733 2.729-4.913 3.773v87.309zM699.591 934.498h32.882v-54.803c0-11.030 5.24-15.655 9.071-19.655 3.831-3.986 8.121-7.005 12.85-10.198 9.46-6.405 20.889-12.772 32.882-18.132 11.993-5.38 24.43-9.734 35.528-12.482 5.549-1.355 10.614-2.535 16.252-2.651 5.638-0.104 13.281-0.387 21.165 7.566 12.81 12.83 27.391 27.746 38.173 38.551l23.433-23.434-38.551-38.551c-6.928-6.947-7.254-13.875-7.559-19.274s0.207-10.275 1.134-15.5c1.854-10.43 5.089-21.847 9.449-32.883 4.36-11.030 9.64-21.335 15.496-30.236 2.928-4.451 6.153-8.727 10.205-12.482 4.051-3.735 9.508-8.321 19.276-8.321h54.425v-32.882h-54.425c-9.743 0-15.194-4.606-19.276-8.321s-7.215-7.624-10.205-12.094c-5.979-8.94-11.462-19.719-15.874-30.991-4.412-11.282-7.848-22.933-9.449-34.017-0.801-5.534-1.049-10.837-0.377-16.623s2.127-12.694 8.315-18.906l38.551-38.551-23.055-23.432c-10.767 10.779-25.727 25.696-38.551 38.551-6.374 6.386-13.606 8.011-19.654 8.689-6.048 0.774-11.831 0.12-17.764-0.774-11.866-1.742-24.385-5.573-36.661-10.585s-23.856-10.953-33.638-18.151c-9.782-7.199-21.165-14.804-21.165-32.502v-54.804h-32.883v54.804c0 17.726-10.994 25.424-20.787 32.502-9.793 7.083-21.468 12.869-33.638 17.764s-24.74 8.766-36.283 10.585c-5.772 0.968-11.164 1.355-17.008 0.774s-13.003-1.742-19.654-8.321c-12.829-12.849-27.784-27.763-38.551-38.551l-23.433 23.055c10.641 10.663 25.972 25.94 38.929 38.929 11.331 11.359 10.598 24.011 9.449 35.527-1.149 11.514-4.264 23.411-8.693 34.772-4.429 11.359-10.005 21.991-16.63 30.993-6.625 8.998-13.945 19.653-30.992 19.653h-54.425v32.882h54.425c9.722 0 15.517 4.509 19.654 8.321s7.227 8.282 10.205 12.849c5.955 9.134 11.179 19.928 15.496 31.37 4.317 11.437 7.506 23.332 9.071 34.393 0.782 5.534 1.37 10.546 0.757 16.255-0.615 5.689-1.95 12.888-8.315 19.274-12.827 12.849-27.785 27.761-38.551 38.549l23.055 23.055c10.767-10.779 25.726-25.694 38.551-38.549 7.177-7.199 14.619-7.74 20.409-7.934s11.349 0.774 17.008 1.935c11.317 2.303 23.539 6.328 35.528 11.34s23.442 10.817 32.882 17.010c4.72 3.096 8.992 6.231 12.85 10.198s8.693 8.747 8.693 19.655zM716.976 767.821c-56.326 0-102.425-45.721-102.425-102.047s46.099-102.426 102.425-102.426c56.326 0 102.047 46.1 102.047 102.426s-45.721 102.047-102.047 102.047zM716.976 729.649c35.574 0 63.874-28.301 63.874-63.874s-28.3-64.252-63.874-64.252c-35.574 0-64.252 28.678-64.252 64.252s28.678 63.874 64.252 63.874zM365.858 562.971l-7.181-17.764-24.567-63.874c-1.43-0.581-2.759-0.968-5.291-1.548-7.597-1.742-18.757-3.077-29.858-3.406-11.101-0.387-22.244 0.194-29.858 1.548-3.056 0.581-4.709 1.355-6.047 1.935l-35.528 80.125-100.535-44.599 7.937-17.377c0 0 17.995-41.317 28.346-64.629-0.45-1.161-0.976-2.593-2.268-4.915-3.389-6.096-9.589-14.436-16.252-21.923-6.663-7.489-14.156-14.165-19.654-18.132-1.833-1.355-2.705-1.742-3.78-2.264l-82.016 31.312-39.307-102.805 86.929-33.259c-7.1 2.729-3.2 2.748-1.512-3.406s2.975-15.887 3.024-25.323c0.049-9.424-1.297-19.003-3.024-25.323-1.727-6.308-4.994-6.966-0.378-4.915-22.492-10.043-67.276-30.236-67.276-30.236l-17.764-7.553 44.598-100.535 17.764 7.566c0 0 40.525 18.306 63.874 28.725 1.302-0.387 2.935-1.161 5.669-2.651 6.508-3.754 15.197-10.45 23.055-17.764s15.221-15.326 19.276-21.544c4.055-6.212 1.581-10.121 4.157-3.406l-33.26-86.927 102.425-39.306 33.26 86.929c-2.565-6.676-1.548-2.361 5.669-0.387s17.957 3.561 28.724 3.773c10.768 0.194 21.754-0.581 29.102-2.264 3.29-0.774 5.585-1.742 6.803-2.264 10.352-23.316 28.346-64.629 28.346-64.629l7.937-17.397 100.157 44.599-36.283 81.639c0.346 1.161 0.822 2.709 2.268 5.283 3.316 5.921 9.615 14.262 16.252 21.544 6.637 7.276 13.799 13.894 19.276 17.764 1.825 1.355 2.705 1.742 3.779 2.264l82.016-31.748 39.685 102.803-82.016 31.37c-0.399 1.161-0.675 2.071-1.134 4.161-1.424 6.521-2.55 16.255-2.646 26.080-0.096 9.83 0.604 19.8 1.891 26.457 0.459 2.38 0.739 3.735 1.134 4.915l80.504 35.527-44.598 100.535-17.764-7.934c0 0-38.391-17.435-61.984-27.968-1.331 0.774-2.323 1.548-4.535 3.019-6.478 4.509-15.018 11.959-23.055 20.032-8.037 8.069-15.798 16.816-20.409 23.432-1.629 2.341-2.267 3.87-3.024 5.302l31.37 82.014zM387.78 513.459l30.992-11.727-19.654-51.023c-3.956-10.295-1.016-16.816 1.134-21.921 2.15-5.109 5.040-9.676 8.315-14.359 6.549-9.385 15.275-19.003 24.567-28.346 9.292-9.347 18.948-18.016 28.346-24.568 4.699-3.27 9.129-6.192 14.362-8.321s12.099-4.935 22.299-0.387c16.683 7.45 36.367 15.713 50.268 21.921l13.228-30.236-49.89-22.298c-8.96-4.006-12.14-10.179-14.362-15.113s-3.528-9.521-4.535-14.746c-2.014-10.43-2.762-22.502-2.646-34.393 0.116-11.901 1.12-23.587 3.402-34.016 1.142-5.205 2.845-10.159 5.291-15.113s5.616-11.243 14.74-14.746l51.024-19.653-11.717-30.616-51.024 19.274c-9.103 3.503-16.018 1.161-21.165-0.774-5.147-2.013-9.205-4.451-13.606-7.566-8.802-6.212-17.523-14.475-25.701-23.432-8.177-8.96-15.688-18.558-21.165-28.346-2.739-4.896-4.976-9.85-6.425-15.5s-2.432-12.772 1.134-20.787l21.921-49.891-29.858-13.604c-6.169 13.894-14.878 33.174-22.299 49.889-3.663 8.244-10.088 12.307-15.496 15.113s-10.765 4.741-16.63 6.038c-11.73 2.632-24.887 3.29-38.173 3.019-13.286-0.194-26.436-1.742-38.173-4.915-11.737-3.212-24.643-6.134-30.992-22.678l-19.654-51.401-30.992 12.094 19.654 51.023c6.361 16.565-1.318 27.657-7.937 37.795-6.62 10.14-15.693 19.771-25.323 28.725-9.629 8.96-19.71 17.203-29.858 23.055-5.074 2.922-10.219 5.205-15.874 6.812-5.655 1.548-12.561 3.096-21.165-0.774-16.666-7.45-35.974-16.081-49.89-22.298l-13.228 30.236c13.99 6.25 33.302 14.9 49.89 22.298 14.662 6.541 18.483 19.042 21.543 30.236 3.061 11.185 4.221 23.307 4.157 35.529-0.064 12.23-1.193 24.348-4.157 35.149-2.965 10.798-5.987 22.993-21.921 29.102l-51.024 19.653 12.094 30.993 51.024-19.655c9.080-3.483 15.931-1.355 21.165 0.774 5.234 2.071 9.557 4.741 13.984 7.934 8.854 6.405 17.551 15.036 25.701 24.189s15.729 18.925 21.165 28.723c2.718 4.896 4.955 9.559 6.425 15.113s2.52 12.54-1.134 20.787c-7.433 16.739-16.142 36.4-22.299 50.267l30.614 13.236 21.921-49.889c4.13-9.289 10.914-12.462 16.252-14.746 5.338-2.264 10.544-3.58 16.252-4.528 11.415-1.935 24.398-2.283 37.417-1.935 13.019 0.387 25.982 1.742 37.039 4.161 5.529 1.161 10.465 2.593 15.496 4.915s11.589 4.935 15.496 15.113zM353.016 375.592c-65.798 25.257-139.921-8.031-165.178-73.836-25.257-65.8 7.549-140.139 73.347-165.396 65.8-25.255 140.275 7.915 165.532 73.703 25.258 65.8-7.901 140.275-73.702 165.53zM339.2 339.602c46.426-17.822 69.346-69.3 51.526-115.726-17.82-46.423-69.3-69.347-115.726-51.526-46.424 17.822-69.346 69.3-51.526 115.726 17.82 46.423 69.302 69.345 115.726 51.526z" />
<glyph unicode="&#xe92a;" glyph-name="colors" data-tags="colors" d="M349.606 957.931c-77.378-20.27-142.817-59.989-194.646-111.496-103.657-103.012-154.961-250.822-154.961-385.512 0-131.435 25.542-258.152 96-354.14 70.458-95.99 186.416-157.817 354.52-157.985 185.026-0.194 370.348 153.941 479.244 305.008 54.448 75.533 90.557 150.066 94.11 212.788 1.776 31.361-5.835 62.017-27.591 83.15s-54.050 29.493-92.976 27.212c-55.205-3.232-91.356-40.127-119.055-65.006-13.849-12.443-25.875-22.089-35.15-26.080-9.275-3.986-14.448-4.489-26.079 1.161-10.281 4.973-11.035 6.947-12.094 14.359s1.262 21.731 7.559 39.306c12.594 35.151 39.358 82.347 59.339 132.662s34.176 106.153 13.228 159.119c-20.947 52.964-75.912 94.954-174.614 120.566-100.101 25.975-189.456 25.186-266.835 4.915zM362.457 909.175c68.398 17.919 148.308 18.422 241.134-5.67 90.335-23.44 126.61-56.116 139.843-89.575 13.232-33.456 4.896-76.062-13.228-121.7-18.124-45.64-44.871-92.059-60.094-134.553-7.612-21.246-12.913-41.891-9.827-63.495s18.2-42.524 40.441-53.291c23.434-11.34 48.762-10.334 68.409-1.935 19.647 8.456 34.961 22.080 49.512 35.149 29.102 26.142 54.444 49.831 87.685 51.78 30.157 1.742 45.948-4.606 54.425-12.849s12.964-21.449 11.717-43.465c-2.495-44.036-33.23-114.751-84.283-185.576-102.107-141.649-282.069-284.397-437.291-284.22-155.987 0.157-252.615 53.976-313.701 137.198-61.086 83.22-86.173 199.201-86.173 323.904 0 121.45 48.068 257.649 140.22 349.229 46.076 45.791 102.815 81.105 171.213 99.024zM500.032 863.822c-56.251 0-102.425-46.176-102.425-102.426s46.174-102.426 102.425-102.426c56.251 0 102.425 46.176 102.425 102.426s-46.174 102.426-102.425 102.426zM500.032 812.419c28.58 0 51.402-22.443 51.402-51.023s-22.821-51.403-51.402-51.403c-28.58 0-51.024 22.823-51.024 51.403s22.443 51.023 51.024 51.023zM270.992 736.83c-56.251 0-102.425-46.176-102.425-102.426s46.174-102.426 102.425-102.426c56.251 0 102.425 46.176 102.425 102.426s-46.174 102.426-102.425 102.426zM270.992 685.427c28.58 0 51.024-22.443 51.024-51.023s-22.443-51.403-51.024-51.403c-28.58 0-51.024 22.823-51.024 51.403s22.443 51.023 51.024 51.023zM218.835 492.672c-56.251 0-102.425-46.176-102.425-102.426s46.174-102.426 102.425-102.426c56.251 0 102.425 46.176 102.425 102.426s-46.174 102.426-102.425 102.426zM218.835 441.27c28.58 0 51.402-22.443 51.402-51.023s-22.821-51.403-51.402-51.403c-28.58 0-51.024 22.823-51.024 51.403s22.443 51.023 51.024 51.023zM380.22 280.639c-56.251 0-102.425-45.797-102.425-102.047s46.174-102.426 102.425-102.426c56.251 0 102.425 46.176 102.425 102.426s-46.174 102.047-102.425 102.047zM380.22 229.616c28.58 0 51.402-22.443 51.402-51.023s-22.821-51.401-51.402-51.401c-28.58 0-51.024 22.821-51.024 51.401s22.443 51.023 51.024 51.023zM637.228 351.317c-56.251 0-102.425-46.176-102.425-102.426s46.174-102.426 102.425-102.426c56.251 0 102.425 46.176 102.425 102.426s-46.174 102.426-102.425 102.426zM637.228 300.294c28.58 0 51.402-22.823 51.402-51.403s-22.821-51.023-51.402-51.023c-28.58 0-51.024 22.443-51.024 51.023s22.443 51.403 51.024 51.403z" />
<glyph unicode="&#xe92b;" glyph-name="computer" data-tags="computer" d="M281.575-0.179v-51.023h460.724v51.023zM51.024 307.096v-51.023h921.827v51.023zM409.701 153.647v-153.826h51.024v153.826zM563.15 153.647v-153.826h51.402v153.826zM42.331 819.223c-22.993 0-42.331-19.338-42.331-42.331v-580.915c0-22.993 19.338-42.331 42.331-42.331h939.213c22.993 0 42.331 19.332 42.331 42.331v580.915c0 22.993-19.338 42.331-42.331 42.331zM51.024 767.821h921.827v-563.148h-921.827z" />
<glyph unicode="&#xe92c;" glyph-name="copy" data-tags="copy" d="M768 972.672v-255.875h255.874l-43.465 43.465zM819.024 849.459l81.638-81.639h-81.638zM358.299 972.672v-819.025h665.575v563.15h-51.024v-512.125h-563.15v716.975h358.299v51.025zM153.449 819.223v-870.426h716.598l0.377 25.323c0 0 1.134 164.799 1.134 182.929h-51.023c0-13.507-0.886-122.625-1.134-157.228h-614.551v768h153.449v51.403z" />
<glyph unicode="&#xe92d;" glyph-name="cradle" data-tags="cradle" d="M198.425 577.333c-18.122 0-34.987-5.167-48-15.113s-22.299-25.503-22.299-43.085c0-17.59 9.286-33.137 22.299-43.087 13.013-9.947 29.878-15.113 48-15.113h627.024c18.122 0 34.987 5.167 48 15.113s22.677 25.505 22.677 43.087c0 17.59-9.664 33.135-22.677 43.085-13.013 9.947-29.878 15.113-48 15.113zM198.425 539.159h627.024c10.242 0 19.073-3.348 24.567-7.566 5.495-4.199 7.559-8.36 7.559-12.482 0-4.102-2.065-8.263-7.559-12.482-5.495-4.199-14.325-7.566-24.567-7.566h-627.024c-10.242 0-19.072 3.367-24.567 7.566s-7.559 8.36-7.559 12.482c0 4.102 2.065 8.263 7.559 12.482 5.494 4.199 14.325 7.566 24.567 7.566zM198.425 168.010c-18.122 0-34.987-5.554-48-15.5s-22.299-25.503-22.299-43.085c0-17.59 9.286-32.758 22.299-42.708 13.013-9.947 29.878-15.5 48-15.5h627.024c18.122 0 34.987 5.554 48 15.5s22.677 25.126 22.677 42.708c0 17.59-9.664 33.135-22.677 43.085-13.013 9.947-29.878 15.5-48 15.5zM198.425 129.458h627.024c10.242 0 19.073-3.348 24.567-7.566 5.495-4.199 7.559-8.36 7.559-12.462s-2.065-8.263-7.559-12.482c-5.495-4.199-14.325-7.179-24.567-7.179h-627.024c-10.242 0-19.072 2.98-24.567 7.179s-7.559 8.36-7.559 12.482c0 4.102 2.065 8.263 7.559 12.462s14.325 7.566 24.567 7.566zM179.15 486.246v-332.598h38.551v332.598zM243.024 488.513v-332.976h38.551v332.976zM320.126 482.089v-332.976h38.173v332.976zM384 483.978v-332.596h38.551v332.596zM460.724 479.444v-332.598h38.551v332.598zM524.976 481.712v-332.978h38.173v332.978zM601.701 482.089v-332.976h38.173v332.976zM665.575 483.978v-332.596h38.551v332.596zM742.299 481.332v-332.976h38.551v332.976zM806.551 483.223v-332.598h38.173v332.598zM492.472 972.672l0.377-19.274c0.865-80.193-0.515-43.078 0-80.505l38.173 0.387c-0.373 27.148-0.019 35.805 0 59.338 63.822-1.161 118.026-5.244 153.827-15.5 40.285-11.533 64.012-27.817 80.504-52.914 32.984-50.195 34.978-144.59 34.772-298.206h38.173c0.205 153.602 2.885 252.485-40.819 318.993-21.852 33.253-55.787 55.929-102.047 69.165s-105.468 18.248-183.307 18.519zM512.126 883.852c-68.83 0-108.871-28.007-128.126-57.071s-19.276-58.961-19.276-58.961h38.551c0 0 0.105 18.558 12.85 37.795 12.745 19.235 36.83 39.685 96 39.685s83.255-20.448 96-39.685c12.745-19.235 12.85-37.795 12.85-37.795h38.173c0 0-0.021 29.898-19.276 58.961s-58.918 57.071-127.748 57.071zM512.126 851.727l-37.795-69.167-26.079-47.621 63.874-106.96 63.496 106.96zM512.126 771.223l19.276-35.527-19.654-32.504-19.276 32.504 15.496 28.346zM359.433 784.828c-38.653 0-70.299-31.645-70.299-70.299s31.646-70.676 70.299-70.676c38.653 0 70.677 32.022 70.677 70.676s-32.024 70.299-70.677 70.299zM359.433 746.277c17.9 0 32.126-13.855 32.126-31.748 0-17.9-14.225-32.125-32.126-32.125s-31.748 14.223-31.748 32.125c0 17.9 13.848 31.748 31.748 31.748zM664.063 787.474c-38.653 0-70.299-31.645-70.299-70.299 0-38.652 31.646-70.299 70.299-70.299s70.299 31.647 70.299 70.299c0 38.654-31.646 70.299-70.299 70.299zM664.063 748.924c17.901 0 32.126-13.855 32.126-31.749 0-17.9-14.225-32.125-32.126-32.125s-32.126 14.223-32.126 32.125c0 17.9 14.225 31.749 32.126 31.749zM387.402 89.775c0 0-20.271-2.825-43.087-12.094s-50.418-24.773-63.874-54.425c-6.027-13.275-9.455-25.784-12.472-35.906h-24.945v78.614h-38.173v-117.166h91.087l4.157 13.991c0 0 9.762 32.796 15.118 44.597 6.899 15.21 25.182 27.351 43.465 34.772 18.282 7.431 34.394 9.83 34.394 9.83zM630.425 89.775l-5.669-37.797c0 0 15.733-2.4 34.016-9.83 18.282-7.412 36.565-19.568 43.465-34.772 5.356-11.804 15.496-44.597 15.496-44.597l3.78-13.981h91.465v117.166h-38.551v-78.614h-24.945c-3.021 10.121-6.073 22.637-12.094 35.906-13.456 29.652-41.437 45.162-64.252 54.425-22.815 9.269-42.709 12.094-42.709 12.094z" />
<glyph unicode="&#xe92e;" glyph-name="creditcard" data-tags="creditcard" d="M51.024 614.372v-51.023h921.827v51.023zM51.024 511.948v-51.025h921.827v51.025zM42.331 767.821c-22.993 0-42.331-18.964-42.331-41.953v-529.89c0-22.993 19.338-42.331 42.331-42.331h939.213c22.993 0 42.331 19.332 42.331 42.331v529.89c0 22.993-19.338 41.953-42.331 41.953zM51.024 716.797h921.827v-512.125h-921.827zM202.205 332.798c-12.786-1.557-22.594-12.345-22.594-25.425 0-14.012 11.257-25.396 25.221-25.6h255.893c0.642-0.057 1.39-0.090 2.144-0.090 14.14 0 25.603 11.463 25.603 25.603s-11.463 25.603-25.603 25.603c-0.755 0-1.502-0.033-2.24-0.097l0.096 0.007h-255.874c-0.395 0.022-0.858 0.034-1.323 0.034s-0.928-0.012-1.387-0.037l0.064 0.003z" />
<glyph unicode="&#xe92f;" glyph-name="cropper" data-tags="cropper" d="M23.433 767.821c-12.779-1.563-22.58-12.349-22.58-25.423 0-14.007 11.249-25.387 25.205-25.6h741.941v-741.92c-0.058-0.645-0.091-1.396-0.091-2.154 0-14.14 11.463-25.603 25.603-25.603s25.603 11.463 25.603 25.603c0 0.758-0.033 1.509-0.098 2.25l0.007-0.096v767.621c-0.156 13.922-11.401 25.167-25.308 25.323h-767.637c-0.395 0.022-0.858 0.034-1.323 0.034s-0.928-0.012-1.387-0.037l0.064 0.003zM227.528 972.672c-12.825-1.517-22.679-12.325-22.679-25.435 0-0.094 0.001-0.188 0.002-0.281v0.014-767.621c0-0.030 0-0.065 0-0.1 0-14.14 11.463-25.603 25.603-25.603 0.035 0 0.069 0 0.104 0h767.617c0.642-0.057 1.39-0.090 2.144-0.090 14.14 0 25.603 11.463 25.603 25.603s-11.463 25.603-25.603 25.603c-0.755 0-1.502-0.033-2.24-0.097l0.096 0.007h-742.299v742.298c0.001 0.073 0.001 0.16 0.001 0.247 0 14.14-11.463 25.603-25.603 25.603-0.967 0-1.922-0.054-2.861-0.158l0.116 0.010z" />
<glyph unicode="&#xe930;" glyph-name="cut" data-tags="cut" d="M153.449 870.246c-84.528 0-153.449-68.921-153.449-153.449s68.921-153.449 153.449-153.449c84.528 0 153.827 68.921 153.827 153.449s-69.299 153.449-153.827 153.449zM153.449 819.223c56.857 0 102.425-45.568 102.425-102.426s-45.568-102.426-102.425-102.426c-56.857 0-102.425 45.568-102.425 102.426s45.568 102.426 102.425 102.426zM279.307 663.884c-13.080-1.256-23.226-12.189-23.226-25.492 0-8.893 4.534-16.726 11.416-21.316l0.094-0.059 716.22-484.534c4.211-3.162 9.526-5.064 15.286-5.064 14.14 0 25.603 11.463 25.603 25.603 0 9.166-4.816 17.206-12.056 21.729l-0.108 0.063-716.22 484.536c-4.093 2.899-9.189 4.633-14.69 4.633-0.816 0-1.624-0.038-2.42-0.113l0.102 0.008zM153.449 51.223c-84.528 0-153.449 68.921-153.449 153.449 0 84.526 68.921 153.826 153.449 153.826s153.827-69.3 153.827-153.826c0-84.528-69.299-153.449-153.827-153.449zM153.449 102.247c56.857 0 102.425 45.568 102.425 102.426 0 56.856-45.568 102.424-102.425 102.424s-102.425-45.568-102.425-102.424c0-56.858 45.568-102.426 102.425-102.426zM997.417 793.9c-5.11-0.197-9.796-1.863-13.689-4.583l0.083 0.055-716.22-484.913c-7.348-4.586-12.164-12.626-12.164-21.792 0-14.14 11.463-25.603 25.603-25.603 5.759 0 11.075 1.902 15.352 5.112l-0.066-0.048 716.22 484.536c7.251 4.604 11.993 12.591 11.993 21.686 0 14.14-11.463 25.603-25.603 25.603-0.531 0-1.058-0.016-1.581-0.048l0.072 0.003z" />
<glyph unicode="&#xe931;" glyph-name="design" data-tags="design" d="M0 972.672v-1023.875h1023.874l-43.465 43.842zM51.024 849.459l849.638-849.639h-849.638zM153.449 614.372v-512.125h512.126l-43.843 43.842zM204.85 490.781l337.134-337.134h-337.134zM768 972.672v-824.316h51.024v773.291h153.827v-972.85h51.024v1023.875zM819.024 844.924v-51.403h51.402v51.403zM819.024 742.498v-51.401h51.402v51.401zM819.024 640.074v-51.403h51.402v51.403zM819.024 537.648v-51.403h51.402v51.403zM819.024 435.222v-51.401h51.402v51.401zM819.024 332.798v-51.025h51.402v51.025zM819.024 230.373v-51.023h51.402v51.023z" />
<glyph unicode="&#xe932;" glyph-name="desktop" data-tags="desktop" d="M984.951 507.874h-86.5l13.116 78.728c0.735 4.335-0.501 8.805-3.352 12.153-2.845 3.367-7.032 5.302-11.446 5.302h-80.156c-4.414 0-8.602-1.935-11.446-5.302-2.852-3.367-4.077-7.818-3.352-12.153l13.116-78.728h-227.094l-8.54 34.126h109.047c25.953 0 47.070 21.11 47.070 47.062v224.454c0 25.952-21.117 47.062-47.071 47.062h-352.703c-25.953 0-47.070-21.11-47.070-47.062v-224.454c0-25.952 21.117-47.062 47.070-47.062h109.047l-8.54-34.126h-181.698v49.127c0 8.282-6.719 14.997-14.999 14.997h-176.36c-8.28 0-14.999-6.715-14.999-14.997v-49.127h-9.047c-21.531 0-39.047-17.532-39.047-39.055v-48.093c0-21.53 17.515-39.047 39.047-39.047h25.078v-48.155l-47.969-367.773c-0.561-4.277 0.755-8.592 3.601-11.843 2.852-3.251 6.961-5.109 11.274-5.109h32.062c7.055 0 13.165 4.915 14.664 11.824l77.586 356.923h713.305l77.594-356.923c1.509-6.908 7.601-11.824 14.657-11.824h32.070c4.313 0 8.422 1.935 11.266 5.109 2.852 3.251 4.164 7.547 3.609 11.843l-47.977 367.773v48.155h25.086c21.531 0 39.047 17.513 39.047 39.047v48.093c0 21.532-17.517 39.055-39.047 39.055zM834.319 574.063h44.75l-11.032-66.189h-22.687zM318.576 589.060v17.068h81.194v29.994h-81.194v177.383c0 9.405 7.655 17.068 17.070 17.068h352.703c9.414 0 17.070-7.663 17.070-17.068v-177.383h-305.648v-29.994h305.648v-17.068c0-9.405-7.655-17.068-17.070-17.068h-352.703c-9.414 0-17.070 7.663-17.070 17.068zM475.615 541.998h72.766l8.54-34.126h-89.844zM78.092 541.998h146.359v-34.126h-146.359zM29.998 420.724v48.093c0 4.993 4.062 9.037 9.047 9.037h457.953v-66.195h-457.953c-4.985 0.006-9.047 4.064-9.047 9.056zM51.006-21.197h-2.891l44.18 338.742h32.351zM972.99-21.197l-73.64 338.742h32.351l44.18-338.742zM993.998 420.724c0-4.993-4.062-9.037-9.047-9.037h-72.14v-29.994h17.062v-34.132h-835.75v34.132h818.688v29.994h-385.813v66.197h457.953c4.992 0 9.047-4.064 9.047-9.056z" />
<glyph unicode="&#xe933;" glyph-name="developer" data-tags="developer" d="M409.701 970.784c-159.876 0-218.169-124.815-223.748-137.198-17.75-0.968-64.363 0.774-103.559-51.023-23.185-30.588-37.048-75.617-31.37-136.819 5.473-58.996 53.505-89.977 102.576-186.832 8.373-252.798-127.899-470.429-127.899-470.429l-26.457-39.683h48c0 0 290.301 0.387 464.882 0.387 31.441 0 51.074-0.387 75.409-0.132 21.019 0.194 37.213 33.774 38.498 53.196 1.285 19.425-11.526 42.664-21.308 58.421-9.782 15.752-22.884 31.039-37.417 46.11-58.133 60.285-143.244 117.166-143.244 117.166l-28.724-42.331c0 0 83.499-56.639 135.307-110.362 12.952-13.43 23.808-26.832 30.614-37.795 6.807-10.972 8.444-19.216 8.315-21.166-0.129-1.954 1.124-8.727-6.375-12.288 0 0-23.774 0.581-51.074 0.581-159.509 0-381.543-0.581-424.819-0.774 27.335 47.002 126.056 234.879 117.694 463.248v5.67l-2.646 4.915c-50.985 98.403-95.518 124.98-100.309 176.626-4.791 51.644 6.336 81.726 21.165 101.29 29.659 39.132 81.638 40.063 81.638 40.063h17.386l6.425 16.255c0 0 41.662 111.873 181.039 111.873 71.111 0 115.901-23.252 144-45.731s37.795-42.71 37.795-42.71l7.937-15.5 17.008 1.548c0 0 50.321 4.431 112.252-0.774 61.931-5.186 134.331-21.501 175.37-54.803 23.888-19.388 53.025-46.547 63.874-69.922 5.425-11.688 6.359-21.023 3.779-30.236-2.376-8.495-10.641-19.158-26.457-30.993-71.447-19.158-204.557-31.177-314.835-43.465-56.131-6.25-105.767-12.694-140.976-21.542-17.605-4.431-31.37-8.089-44.22-18.519-6.425-5.205-13.805-14.494-14.362-26.834-0.557-12.346 5.575-22.205 11.717-28.346l7.559-7.566h10.583c51.2 0 88.040-2.748 99.402-9.076 5.681-3.154 6.832-3.967 8.315-11.727s0.815-23.31-5.291-46.11c-3.277-12.23-15.996-36.924-27.968-56.316-11.972-19.39-23.055-34.393-23.055-34.393l41.575-29.859c0 0 11.951 16.371 24.945 37.417s27.54 45.746 34.016 69.922c7.171 26.77 9.896 48.66 6.047 68.788s-17.038 38.012-33.638 47.244c-8.073 4.489-21.302 1.548-30.236 3.773 26.026 4.141 47.622 8.34 81.26 12.094 111.092 12.385 247.167 23.279 328.441 46.11l4.157 1.161 3.779 2.264c25.72 17.784 42.278 38.844 48.756 61.984 6.478 23.142 1.792 46.433-7.181 65.765-17.945 38.662-52.332 67.723-77.858 88.441-56.38 45.75-136.75 60.18-203.339 65.763-59.492 4.993-97.837 1.548-107.717 0.774-5.844 9.714-12.182 23.73-39.685 45.733-35.901 28.719-93.259 56.693-175.748 56.693zM1013.291 637.806l-51.024-3.406c0 0 2.727-46.648-0.377-92.22-1.552-22.788-4.822-45.553-9.449-59.338-1.649-4.915-2.888-6.618-4.157-8.689-0.424 0.774-1.484 0.774-6.803 7.179-7.192 8.708-15.559 21.892-22.677 35.529-14.236 27.27-24.189 55.18-24.189 55.18l-49.89-7.566c0 0-1.039-23.314-5.291-45.353-1.858-9.637-4.375-17.88-6.803-23.812-6.382 2.458-15.558 7.605-24.189 20.41-10.308 15.287-16.63 30.991-16.63 30.991l-16.63 42.71-71.433-93.733c-0.236 0.581-0.156 0.168-0.377 0.774-7.197 19.080-12.094 52.314-12.094 66.897h-51.402c0-23.637 5.317-57.065 15.874-85.039 5.278-13.991 9.959-27.663 26.079-37.795 8.060-5.070 21.233-7.257 31.748-3.773s17.346 10.295 23.055 17.764l27.591 35.906c1.084-1.742 0.718-1.742 1.891-3.406 14.065-20.87 35.764-47.579 71.433-47.244 10.851 0.124 20.641 5.476 26.835 11.34 6.194 5.844 10.139 12.133 13.228 18.519 1.802 3.715 2.029 7.857 3.402 11.707 6.399-11.282 12.711-22.718 20.787-32.504 11.062-13.41 24.104-27.399 46.488-28.346 14.396-0.581 28.198 6.792 36.283 15.868 8.085 9.095 12.618 19.407 16.252 30.236 7.268 21.658 10.389 46.785 12.094 71.812 3.411 50.052 0.377 99.401 0.377 99.401zM393.071 841.144c-20.632-1.548-36.893-11.92-51.024-23.812-14.131-11.901-26.496-26.196-37.039-40.063-21.086-27.732-35.15-54.425-35.15-54.425l-8.693-16.255 12.094-13.236c0 0 16.52-17.861 38.551-36.283 22.031-18.442 47.988-39.807 81.638-41.953 39.404-2.535 70.824 21.619 95.622 42.708s42.709 42.71 42.709 42.71l11.339 13.604-9.071 15.5c0 0-16.026 27.75-40.063 55.18s-56.471 59.546-100.913 56.316zM396.85 790.121c12.477 0.968 38.359-16.236 58.583-39.308 13.544-15.462 17.413-22.583 23.055-31.37-6.363-6.966-9.353-11.282-22.299-22.298-20.957-17.822-48.18-31.734-59.717-30.993-7.418 0.387-32.722 14.301-51.78 30.236-11.082 9.269-13.629 12.056-19.654 18.132 5.151 8.843 8.635 15.771 20.787 31.748 9.098 11.959 19.447 23.995 29.102 32.127 9.655 8.127 18.404 11.456 21.921 11.727zM374.929 749.679v-40.819h51.402v40.819zM469.039 363.412c-0.254 0.009-0.552 0.014-0.852 0.014-14.14 0-25.603-11.463-25.603-25.603 0-9.598 5.281-17.962 13.097-22.346l0.129-0.067 198.803-113.007 13.606 17.010c0 0 21.256 26.693 51.024 51.78s67.102 44.711 90.709 41.197c25.431-3.793 66.949-15.017 96-29.482 14.525-7.237 25.713-15.616 30.236-21.164 4.523-5.554 4.18-3.832 2.646-7.179 1.981 4.335 0.613 0.968-6.047-1.935-6.66-2.767-16.81-5.264-26.835-7.179-20.049-3.812-39.307-4.915-39.307-4.915l-62.362-3.406 46.488-41.574c0 0 26.636-23.608 48.378-49.889 10.871-13.139 20.342-27.123 24.189-36.283 0.194-0.387 0.215-0.387 0.377-0.774-1.029 0.387-1.004 0.164-2.268 0.774-9.728 4.567-24.602 15.075-40.819 26.834-16.217 11.766-33.995 24.679-53.669 34.016-19.675 9.347-43.377 15.713-67.276 7.566l-2.646-0.774-91.087-55.938-246.047 106.962c-3.368 1.744-7.352 2.766-11.575 2.766-14.14 0-25.603-11.463-25.603-25.603 0-10.969 6.898-20.326 16.592-23.972l0.176-0.058 270.614-117.543 106.961 65.763c6.056 1.935 14.805 0.968 27.968-5.283 13.507-6.405 29.327-17.842 45.354-29.48 16.027-11.63 31.716-23.587 49.134-31.749 8.709-4.083 18.393-7.315 29.48-7.566 11.087-0.194 23.732 3.773 32.882 12.094 9.301 8.476 14.393 21.511 14.74 32.504 0.348 10.991-2.32 20.601-6.047 29.48-7.455 17.764-19.586 33.977-32.126 49.135-8.158 9.869-9.583 10.043-17.386 18.132 10.382 2.167 21.169 4.451 31.37 8.689 12.040 5.012 25.254 11.301 32.882 27.968 9.492 20.735 2.906 45.299-9.449 60.472-12.355 15.171-29.030 25.704-47.244 34.772-36.428 18.132-79.879 29.735-111.118 34.393-51.505 7.663-96.94-24.083-131.15-52.912-24.94-21.019-33.615-32.872-42.331-43.087l-162.898 92.599c-3.448 2.158-7.588 3.53-12.030 3.771l-0.065 0.003z" />
<glyph unicode="&#xe934;" glyph-name="diamond" data-tags="diamond" d="M289.89 972.672l-289.89-329.953 12.094-16.253 500.031-677.669 511.748 693.542-269.48 330.332zM312.945 921.647h417.26l229.039-280.819-447.118-605.858-446.362 605.104zM321.26 941.302l-49.89-11.34 215.811-935.432h49.89l215.811 935.432-49.89 11.34-190.866-827.338zM59.717 660.482v-51.023h904.441v51.023zM467.15 946.593l-123.213-285.732 46.866-20.41 123.591 285.732zM555.213 951.883l-46.866-20.41 123.213-285.732 47.244 20.41z" />
<glyph unicode="&#xe935;" glyph-name="dinner" data-tags="dinner" d="M625.895-1.72c-6.19 23.794-27.682 40.412-52.268 40.412h-9.284v319.708h184.708c10.64 0 20.598 4.73 27.322 12.976 6.724 8.248 9.354 18.956 7.21 29.38-6.452 31.368-34.376 54.134-66.398 54.134h-311.856v-30h311.856c17.852 0 33.416-12.692 37.012-30.176 0.438-2.128-0.486-3.658-1.074-4.382-0.59-0.722-1.902-1.934-4.072-1.934h-474.108c-2.17 0-3.482 1.212-4.072 1.934-0.588 0.722-1.512 2.254-1.074 4.38 3.596 17.486 19.16 30.178 37.012 30.178h98.52v30h-98.52c-32.024 0-59.948-22.766-66.398-54.136-2.142-10.424 0.486-21.132 7.21-29.378s16.682-12.976 27.322-12.976h184.71v-319.71h-9.284c-24.586 0-46.078-16.618-52.268-40.41l-3.522-13.534c-2.254-8.67-0.406-17.704 5.072-24.792 5.48-7.086 13.76-11.152 22.716-11.152h179.26c8.958 0 17.236 4.064 22.716 11.152 5.478 7.086 7.326 16.122 5.072 24.792zM489.653 358.4v0h44.692v-319.71h-44.692zM424.031-21.196l3.104 11.924c2.75 10.576 12.304 17.962 23.232 17.962h123.258c10.928 0 20.482-7.386 23.232-17.962l3.104-11.924zM724.396 280.492h128.052c14.998 0 27.294 12.365 28.606 28.777l14.792 185.119c3.134 39.229 32.538 68.811 68.396 68.811h13.674c12.888 0 25.274-5.999 33.98-16.429s13.054-24.512 11.93-38.615l-20.484-256.351c-2.418-30.254-14.978-58.21-35.368-78.726-12.81-12.907-28.020-22.134-44.412-27.229l49.028-175.84c2.426-8.689-2.030-17.919-9.95-20.572-1.465-0.387-2.944-0.581-4.398-0.581-6.418 0-12.36 4.567-14.336 11.649l-17.424 62.493h-205.74l-17.424-62.493c-1.976-7.102-7.916-11.649-14.336-11.649-1.455 0-2.936 0.194-4.398 0.581-7.92 2.651-12.376 11.882-9.95 20.572l20.66 74.1c0.020 0.074 0.040 0.147 0.060 0.194l27.028 96.963h-27.446c-24.79 0-44.954 22.145-44.954 49.373v8.127c0 45.067 33.382 81.73 74.414 81.73zM917.296 55.808l-23.828 85.464h-139.71l-23.828-85.464zM679.982 190.645c0-9.056 6.708-16.429 14.954-16.429h47.576c0.060 0 0.118 0 0.178 0h150.786c3.208 0 6.364 0.194 9.472 0.581 0.002 0 0.006 0 0.010 0 37.528 4.76 67.116 37.483 70.5 79.849l20.484 256.353c0.401 4.993-1.080 9.772-4.164 13.468-3.082 3.696-7.294 5.747-11.86 5.747h-13.674c-20.19 0-36.746-16.661-38.51-38.745l-14.792-185.117c-2.68-33.547-27.826-58.847-58.492-58.847h-128.052c-24.49 0-44.414-21.88-44.414-48.777v-8.127zM299.604 280.436h-128.052c-14.998 0-27.294 12.365-28.606 28.777l-14.792 185.119c-3.134 39.229-32.538 68.811-68.396 68.811h-13.674c-12.888 0-25.274-5.999-33.98-16.429s-13.054-24.512-11.93-38.615l20.484-256.351c2.418-30.254 14.978-58.21 35.368-78.726 12.81-12.907 28.020-22.134 44.412-27.229l-49.028-175.84c-2.426-8.689 2.030-17.919 9.95-20.572 1.465-0.387 2.944-0.581 4.398-0.581 6.418 0 12.36 4.567 14.336 11.649l17.424 62.493h205.74l17.424-62.493c1.976-7.102 7.916-11.649 14.336-11.649 1.455 0 2.936 0.194 4.398 0.581 7.92 2.651 12.376 11.882 9.95 20.572l-20.66 74.1c-0.020 0.072-0.040 0.149-0.060 0.194l-27.028 96.963h27.446c24.79 0 44.954 22.145 44.954 49.373v8.127c0 45.067-33.382 81.73-74.414 81.73zM106.704 55.751l23.828 85.464h139.71l23.828-85.464zM344.018 190.589c0-9.056-6.708-16.429-14.954-16.429h-47.576c-0.060 0-0.118 0-0.178 0h-150.786c-3.208 0-6.364 0.194-9.472 0.581-0.002 0-0.006 0-0.010 0-37.528 4.76-67.116 37.483-70.5 79.849l-20.484 256.353c-0.401 4.993 1.080 9.772 4.164 13.468 3.082 3.696 7.294 5.747 11.86 5.747h13.674c20.19 0 36.746-16.661 38.51-38.745l14.792-185.117c2.68-33.547 27.826-58.847 58.492-58.847h128.052c24.49 0 44.414-21.88 44.414-48.777v-8.127z" />
<glyph unicode="&#xe936;" glyph-name="dots" data-tags="dots" d="M588.8 460.799c-0.002-42.414-34.386-76.797-76.8-76.797v0c-42.414 0-76.798 34.383-76.8 76.797v0c0 0 0 0.001 0 0.001 0 42.415 34.385 76.8 76.8 76.8v0c42.415 0 76.8-34.385 76.8-76.8 0 0 0-0.001 0-0.001v0zM588.8 895.999c-0.002-42.414-34.386-76.797-76.8-76.797v0c-42.414 0-76.798 34.383-76.8 76.797v0c0 0 0 0.001 0 0.001 0 42.415 34.385 76.8 76.8 76.8v0c42.415 0 76.8-34.385 76.8-76.8 0 0 0-0.001 0-0.001v0zM588.8 25.598c-0.001-42.415-34.385-76.799-76.8-76.799v0c-42.415 0-76.799 34.384-76.8 76.799v0c0 0 0 0.001 0 0.001 0 42.415 34.385 76.8 76.8 76.8v0c42.415 0 76.8-34.385 76.8-76.8 0 0 0-0.001 0-0.001v0z" />
<glyph unicode="&#xe937;" glyph-name="dots-horizontal" data-tags="dots-horizontal" d="M588.8 460.799c0-42.393-34.406-76.799-76.8-76.799-42.516 0-76.8 34.406-76.8 76.799-0.123 42.516 34.283 76.801 76.677 76.801 42.516 0.116 76.8-34.284 76.923-76.677zM1024 460.799c0-42.393-34.406-76.799-76.8-76.799-42.516 0-76.8 34.406-76.8 76.799-0.123 42.516 34.283 76.801 76.677 76.801 42.516 0.116 76.8-34.284 76.923-76.677zM153.6 460.799c0-42.393-34.406-76.799-76.8-76.799-42.516 0-76.8 34.406-76.8 76.799-0.123 42.516 34.283 76.801 76.677 76.801 42.516 0.116 76.8-34.284 76.923-76.677z" />
<glyph unicode="&#xe938;" glyph-name="duck" data-tags="duck" d="M396.85 874.403c-51.259 1.742-85.367-25.12-101.291-51.401-15.925-26.283-17.764-52.914-17.764-52.914l-0.377-3.406 0.757-3.406c0 0 4.655-25.88 20.787-51.778s48.4-54.584 95.244-52.914c46.601 1.742 76.653 30.29 91.087 55.937 14.434 25.648 17.008 50.646 17.008 50.646l0.377 3.019-0.377 2.651c0 0-2.567 24.621-16.63 49.512-14.063 24.889-43.772 52.517-88.819 54.046zM395.339 823.38c26.382-0.968 37.257-13.352 45.732-28.346 7.621-13.488 9.045-24.628 9.449-27.214-0.385-2.593-1.891-14.242-9.827-28.346-8.79-15.616-20.199-28.853-48.378-29.859-26.669-0.968-39.493 12.404-49.89 29.102-9.246 14.842-11.744 27.003-12.472 30.236 0.341 2.67 1.308 13.778 9.449 27.214 9.053 14.939 21.383 28.38 55.937 27.212zM365.858 793.9v-43.465h51.402v43.465zM680.315 740.609c0 0-41.034-16.584-85.417-38.174-22.192-10.798-45.213-22.79-65.008-35.149-19.795-12.365-36.547-22.887-47.622-40.819-18.093-29.298-17.977-63.464-10.205-94.488s23.084-60.894 39.685-87.307c33.201-52.823 72.945-93.354 72.945-93.354l36.661 35.904c0 0-36.473 37.458-66.142 84.661-14.834 23.603-27.921 49.371-33.638 72.19s-4.269 40.924 4.535 55.182c0.954 1.548 13.341 13.778 30.614 24.566 17.273 10.779 39.254 22.18 60.472 32.504 42.436 20.646 82.016 36.661 82.016 36.661zM505.701 967.757c-103.339 7.276-183.721 7.586-246.803-4.161s-110.744-37.386-139.087-80.882c-28.342-43.496-36.237-100.514-32.882-172.725 3.29-70.802 18.116-158.622 39.685-266.079-18.852-270.884-108.85-458.457-108.85-458.457l-17.764-36.657h555.213l-0.377 26.080c-2.989 200.035 15.488 293.559 31.37 332.219 7.711 18.771 14.042 23.107 15.118 23.812 70.074-0.194 170.298-4.973 377.953 22.298 3.959 0.581 6.328 0.774 11.339 2.264 1.252 0.387 2.639 0.968 4.913 2.264 1.138 0.581 4.094 2.593 4.157 2.651 0.064 0.050 5.637 6.367 5.669 6.425 0.032 0.050 4.156 12.791 4.157 12.849 0.002 0.052-2.995 13.546-3.024 13.604-0.029 0.050-5.611 6.754-5.669 6.792-0.059 0.052-3.046 2.361-4.157 3.019-8.894 5.36-9.642 3.87-12.85 4.528-3.208 0.581-6.776 1.161-10.961 1.935-16.74 2.787-43.774 6.889-76.724 14.746-42.198 10.043-89.322 41.69-136.063 67.654 41.528 0.387 77.598-1.935 120.945 7.179 38.333 8.031 75.273 21.621 102.803 48.378s42.841 66.74 39.685 116.032l-1.511 24.189h-23.812c-108.617 0-141.2-24.779-306.898 51.023-4.105 10.546-18.416 48.862-47.244 99.401-16.274 28.531-35.262 57.719-57.449 81.639s-47.97 43.72-79.748 47.621l-0.757 0.387zM500.787 916.734c12.521-1.548 30.059-12.404 48-31.748 17.941-19.351 35.945-45.754 51.024-72.19 30.158-52.869 49.89-105.069 49.89-105.069l3.402-9.83 9.449-4.161c165.177-77.349 218.932-55.836 303.874-52.157-2.536-22.867-5.596-44.512-18.52-57.071-17.197-16.719-44.548-28.626-77.48-35.529-65.864-13.797-149.738-7.934-206.362-11.34l-57.071-3.406 40.441-40.44c57.781-57.566 129.748-78.955 193.512-97.89-91.265-6.154-195.605-14.494-242.268-14.359-1.827 0.128-2.305 0.581-4.157 0.387-0.571-0.056-1.297-0.581-1.891-0.774-0.501 0-2.146 0-2.646 0v-0.774c-4.745-0.968-9.579-1.742-14.74-4.915-13.499-8.147-25.701-23.374-36.283-49.135-19.62-47.759-32.678-152.114-32.504-326.551h-433.889c12.516 27.196 87.81 181.684 105.449 442.205l0.378 3.406-0.756 3.406c-22.106 109.557-36.572 196.811-39.685 263.813-3.113 67 5.202 112.39 24.567 142.109s50.768 48.328 105.827 58.584c54.791 10.198 131.679 10.45 232.441 3.406z" />
<glyph unicode="&#xe939;" glyph-name="edit" data-tags="edit" d="M868.913 972.672l-678.425-677.291-190.488-346.584 351.118 203.338 672.756 671.244-12.472 12.849-23.433 23.415-0.377-0.387zM869.67 901.239l81.638-78.237-631.559-630.047-186.331-107.716 98.268 179.149zM786.142 837.365l-36.283-36.283 119.055-118.3 36.283 36.283z" />
<glyph unicode="&#xe93a;" glyph-name="edit-page" data-tags="edit-page" d="M0 870.246v-921.449h664.441v25.323c0 0 0.985 129.092 1.891 260.031s1.891 262.22 1.891 272.503h-51.025c0-6.618-0.985-141.567-1.891-272.503-0.817-118.168-1.738-212.743-1.891-234.331h-562.392v819.403h562.394c-0.057-15.907-0.352-32.808-0.377-64.631-0.019-22.238 0.279-43.898 0.377-59.716 0.050-7.915-0.103-14.552 0-18.906 0.051-2.167 0.215-3.232 0.377-5.283 0.041-0.581-0.169-1.161 0-2.264 0.085-0.581 0.747-2.612 0.757-2.651 0.004-0.017 0.751-3.019 0.757-3.019 0.004-0.010 4.153-6.792 4.157-6.812 0.004-0.006 20.031 15.868 20.031 15.868s20.405-15.133 20.409-15.113c0.004 0.006 3.397 6.038 3.402 6.038 0.004 0.012 0.751 2.632 0.757 2.651 0.018 0.070 0.677 3.096 0.757 3.773l-24.945 3.019c0.797 0.581 19.658 15.5 19.654 15.5-0.004 0.006 3.784-6.444 3.779-6.425-0.004 0.010 0.761-3.038 0.757-3.019-0.008 0.033 0.31-1.742 0.377-2.264 0.137-0.968 0.368-1.355 0.377-1.548 0.042-0.581 0.043 1.161 0 3.019-0.087 3.677-0.329 9.598-0.377 17.397-0.098 15.558-0.018 37.535 0 59.716 0.037 44.363 0 89.954 0 89.954l0.377 25.7zM618.709 687.318c-0.004-0.006 18.798-14.204 20.031-15.113l-24.567 3.019c0.042 0.387 0.397 3.096 0.377 3.019-0.004-0.017 0.761 2.651 0.757 2.651-0.004-0.012 3.406 6.425 3.402 6.425zM904.063 972.672l-495.496-488.695-148.157-266.456 271.37 145.134 456.567 459.213 0.377-0.387 9.827 10.198 23.811 24.189-0.757 0.774 2.268 2.264zM904.82 901.617l46.488-44.221-450.52-453.164-111.118-59.338 60.094 108.094zM837.165 837.365l-35.906-36.283 82.016-80.505 35.906 36.661z" />
<glyph unicode="&#xe93b;" glyph-name="enter" data-tags="enter" d="M317.506 729.223l-35.906-36.283 157.228-155.34-157.228-155.338 35.906-36.663 194.268 192zM1023.874 972.293l-41.575-34.393-214.299-175.37v-813.733l255.874 207.118zM972.85 863.822v-683.339l-153.827-124.347v681.825zM510.614 972.672l1.386-306.898 51.2-0.174-1.562 256.047h460.724v51.025zM512.126 409.599v-256.202h255.874v51.403h-204.85v204.799zM0 563.023v-51.023h486.4v51.023z" />
<glyph unicode="&#xe93c;" glyph-name="envelope" data-tags="envelope" d="M25.602 767.951c-14.138-0.001-25.599-11.462-25.6-25.6v0l1.5-563.2c0.001-14.138 11.462-25.599 25.6-25.6h971.3c14.138 0.001 25.599 11.462 25.6 25.6v0 563.2c-0.001 14.138-11.462 25.599-25.6 25.6v0zM51.302 716.751h921.5v-512h-920.2zM24.902 738.051c-13.884-0.33-25.014-11.663-25.014-25.596 0-9.309 4.969-17.458 12.399-21.939l0.115-0.064 486.1-302.6c3.835-2.415 8.5-3.848 13.5-3.848s9.665 1.433 13.606 3.911l-0.106-0.062 486.1 302.6c7.522 4.551 12.472 12.687 12.472 21.979 0 14.14-11.463 25.603-25.603 25.603-5.154 0-9.951-1.523-13.968-4.143l0.098 0.060-472.6-294.2-472.6 294.2c-3.927 2.575-8.739 4.108-13.909 4.108-0.208 0-0.415-0.002-0.621-0.007l0.031 0.001z" />
<glyph unicode="&#xe93d;" glyph-name="envelope-plus" data-tags="envelope-plus" d="M25.302 537.751c-14.015-0.163-25.314-11.562-25.314-25.601 0-9.104 4.752-17.098 11.91-21.637l0.105-0.062 401.7-259.7 393.7 259.9c7.409 4.574 12.273 12.648 12.273 21.859 0 14.14-11.463 25.603-25.603 25.603-5.579 0-10.741-1.784-14.946-4.813l0.076 0.052-365.8-241.5-373.6 241.6c-3.992 2.695-8.911 4.302-14.206 4.302-0.104 0-0.207-0.001-0.31-0.002h0.016zM895.602 870.351c-13.966-0.226-25.202-11.6-25.202-25.599 0-0.106 0.001-0.211 0.002-0.317v0.016-76.5h-76.4c-0.108 0.002-0.235 0.003-0.362 0.003-14.14 0-25.603-11.463-25.603-25.603s11.463-25.603 25.603-25.603c0.127 0 0.254 0.001 0.381 0.003h76.381v-76.4c-0.002-0.108-0.003-0.235-0.003-0.362 0-14.14 11.463-25.603 25.603-25.603s25.603 11.463 25.603 25.603c0 0.127-0.001 0.254-0.003 0.381v-0.019 76.4h76.4c0.108-0.002 0.235-0.003 0.362-0.003 14.14 0 25.603 11.463 25.603 25.603s-11.463 25.603-25.603 25.603c-0.127 0-0.254-0.001-0.381-0.003h-76.381v76.5c0.001 0.089 0.002 0.195 0.002 0.301 0 14.14-11.463 25.603-25.603 25.603-0.14 0-0.28-0.001-0.42-0.003h0.021zM42.302 563.251c-22.993 0-42.3-19.407-42.3-42.4v-427.3c0-22.993 19.307-42.3 42.3-42.3h734.6c22.993 0 42.3 19.307 42.3 42.3v427.3c0 22.993-19.307 42.4-42.3 42.4zM51.202 512.051h716.8v-409.6h-716.8z" />
<glyph unicode="&#xe93e;" glyph-name="exit" data-tags="exit" d="M826.205 729.978l-35.528-36.661 159.874-155.34-159.874-155.717 35.528-36.661 197.669 192.378zM0 972.672v-816.001l255.874-207.118v813.353zM51.024 864.956l153.827-126.237v-682.205l-153.827 124.724zM0 972.672v-51.025h460.724v-255.873h51.402v306.898zM460.724 409.599v-204.927h-204.85v-51.025h256.252v255.952zM512 563.478v-51.199h460.8v51.199z" />
<glyph unicode="&#xe93f;" glyph-name="eye" data-tags="eye" d="M512 768c-307.2 0-512-307.2-512-307.2s204.8-307.2 512-307.2c307.2 0 512 307.2 512 307.2s-204.8 307.2-512 307.2zM512 665.6c102.4 0 204.8-102.4 204.8-204.8s-102.4-204.8-204.8-204.8c-102.4 0-204.8 102.4-204.8 204.8s102.4 204.8 204.8 204.8zM614.4 460.799c0-51.199-51.2-102.399-102.4-102.399s-102.4 51.199-102.4 102.399c0 51.201 51.2 102.401 104.097 102.401 49.503 0 100.703-51.199 100.703-102.401z" />
<glyph unicode="&#xe940;" glyph-name="facebook" data-tags="facebook" d="M1024 916.341v-910.858c0-31.314-25.371-56.457-56.457-56.457h-261.029v396.343h133.029l19.886 154.513h-153.143v98.743c0 44.8 12.343 75.201 76.571 75.201h81.828v138.285c-14.171 1.742-62.628 6.173-119.314 6.173-117.943 0-198.857-72-198.857-204.343v-114.058h-133.486v-154.513h133.486v-396.571h-490.057c-31.086 0-56.457 25.371-56.457 56.457v911.086c0 31.086 25.371 56.457 56.457 56.457h910.857c31.314 0 56.686-25.371 56.686-56.457z" />
<glyph unicode="&#xe941;" glyph-name="facebook-circle" data-tags="facebook-circle" d="M512 972.8c-282.77 0-512-229.839-512-513.36v0c0.027-265.085 200.439-483.229 457.63-510.449l2.227-0.191v320.664h-122.501v128.812h122.501v101.492c0 110.269 76.024 170.286 187.026 170.286 53.185 0 98.864-3.539 112.12-5.096v-115.223h-76.984c-60.372 0-72.031-25.479-72.031-62.707v-88.753h136.235l-18.687-128.812h-117.548v-313.447c237.393 47.642 413.788 254.845 414.012 503.398v0.025c0 283.521-229.23 513.36-512 513.36v0z" />
<glyph unicode="&#xe942;" glyph-name="facebook-f" data-tags="facebook-f" d="M679.6 802.8h96.4v162.8c-16.6 2.202-73.8 7.2-140.4 7.2-139 0-234.2-84.8-234.2-240.6v-143.4h-153.4v-182h153.4v-458h188v458h147.2l23.4 182h-170.6v125.4c0 52.6 14.6 88.6 90.2 88.6z" />
<glyph unicode="&#xe943;" glyph-name="face-happy" data-tags="face-happy" d="M512.126 972.672c-282.467 0-512.126-229.282-512.126-511.75 0-282.465 229.659-512.125 512.126-512.125s511.748 229.66 511.748 512.125c0 282.467-229.281 511.75-511.748 511.75zM512.126 921.647c254.796 0 460.724-205.928 460.724-460.725 0-254.795-205.928-461.102-460.724-461.102s-461.102 206.307-461.102 461.102c0 254.797 206.306 460.725 461.102 460.725zM768 640.002c0 0 0-0.001 0-0.001 0-42.415-34.385-76.8-76.8-76.8v0c-42.415 0-76.8 34.385-76.8 76.8 0 0 0 0.001 0 0.001v0c0.001 42.415 34.385 76.799 76.8 76.799v0c42.415 0 76.799-34.384 76.8-76.799v0zM274.394 374.372c-12.29-2.044-21.545-12.598-21.545-25.313 0-4.133 0.978-8.038 2.715-11.495l-0.067 0.148c0 0 84.182-184.065 256.63-184.065s256.63 184.065 256.63 184.065c1.55 3.211 2.456 6.982 2.456 10.964 0 14.193-11.506 25.699-25.699 25.699-10.213 0-19.035-5.958-23.179-14.588l-0.067-0.154c0 0-75.39-154.96-210.142-154.96s-210.52 154.96-210.52 154.96c-4.134 8.944-13.029 15.039-23.347 15.039-1.364 0-2.703-0.107-4.010-0.312l0.145 0.019zM409.6 640.002c0 0 0-0.001 0-0.001 0-42.415-34.385-76.8-76.8-76.8v0c-42.415 0-76.8 34.385-76.8 76.8 0 0 0 0.001 0 0.001v0c0.001 42.415 34.385 76.799 76.8 76.799v0c42.415 0 76.799-34.384 76.8-76.799v0z" />
<glyph unicode="&#xe944;" glyph-name="face-poker" data-tags="face-poker" d="M512.126 972.672c-282.467 0-512.126-229.282-512.126-511.75 0-282.465 229.659-512.125 512.126-512.125s511.748 229.66 511.748 512.125c0 282.467-229.281 511.75-511.748 511.75zM512.126 921.647c254.796 0 460.724-205.928 460.724-460.725 0-254.795-205.928-461.102-460.724-461.102s-461.102 206.307-461.102 461.102c0 254.797 206.306 460.725 461.102 460.725zM304.63 256.073c-13.632-0.723-24.411-11.953-24.411-25.7 0-14.213 11.522-25.734 25.734-25.734 0.465 0 0.928 0.012 1.387 0.037l-0.064-0.003h409.701c14.194 0 25.7 11.506 25.7 25.7s-11.506 25.7-25.7 25.7v0h-409.701c-0.395 0.022-0.858 0.034-1.323 0.034s-0.928-0.012-1.387-0.037l0.064 0.003zM409.6 640.002c0 0 0-0.001 0-0.001 0-42.415-34.385-76.8-76.8-76.8v0c-42.415 0-76.8 34.385-76.8 76.8 0 0 0 0.001 0 0.001v0c0.001 42.415 34.385 76.799 76.8 76.799v0c42.415 0 76.799-34.384 76.8-76.799v0zM768 640.002c0 0 0-0.001 0-0.001 0-42.415-34.385-76.8-76.8-76.8v0c-42.415 0-76.8 34.385-76.8 76.8 0 0 0 0.001 0 0.001v0c0.001 42.415 34.385 76.799 76.8 76.799v0c42.415 0 76.799-34.384 76.8-76.799v0z" />
<glyph unicode="&#xe945;" glyph-name="face-sad" data-tags="face-sad" d="M512.126 972.672c-282.467 0-512.126-229.282-512.126-511.75 0-282.465 229.659-512.125 512.126-512.125s511.748 229.66 511.748 512.125c0 282.467-229.281 511.75-511.748 511.75zM512.126 921.647c254.796 0 460.724-205.928 460.724-460.725 0-254.795-205.928-461.102-460.724-461.102s-461.102 206.307-461.102 461.102c0 254.797 206.306 460.725 461.102 460.725zM768 640.002c0 0 0-0.001 0-0.001 0-42.415-34.385-76.8-76.8-76.8v0c-42.415 0-76.8 34.385-76.8 76.8 0 0 0 0.001 0 0.001v0c0.001 42.415 34.385 76.799 76.8 76.799v0c42.415 0 76.799-34.384 76.8-76.799v0zM512.126 360.010c-172.448 0-256.63-184.063-256.63-184.063-2.28-3.756-3.629-8.296-3.629-13.152 0-14.162 11.481-25.643 25.643-25.643 11.015 0 20.409 6.946 24.039 16.696l0.058 0.177c0 0 75.768 154.581 210.52 154.583 134.752 0 210.142-154.583 210.142-154.583 4.211-8.784 13.033-14.742 23.246-14.742 14.193 0 25.699 11.506 25.699 25.699 0 3.983-0.906 7.754-2.523 11.119l0.067-0.154c0 0-84.182 184.063-256.63 184.063zM409.6 640.002c0 0 0-0.001 0-0.001 0-42.415-34.385-76.8-76.8-76.8v0c-42.415 0-76.8 34.385-76.8 76.8 0 0 0 0.001 0 0.001v0c0.001 42.415 34.385 76.799 76.8 76.799v0c42.415 0 76.799-34.384 76.8-76.799v0z" />
<glyph unicode="&#xe946;" glyph-name="file" data-tags="file" d="M614.551 971.538v-254.741h256.252zM665.575 848.703l81.26-80.882h-81.26zM153.449 972.672v-1023.875h716.976v768h-51.402v-716.977h-614.173v921.826h409.701v51.025zM358.299 256.073v-51.401h307.276v51.401zM358.299 460.923v-51.401h307.276v51.401zM358.299 665.774v-51.403h307.276v51.403z" />
<glyph unicode="&#xe947;" glyph-name="file-add" data-tags="file-add" d="M614.551 971.538v-254.741h256.252zM665.575 848.703l81.26-80.882h-81.26zM153.449 972.672v-1023.875h716.976v768h-51.402v-716.977h-614.173v921.826h409.701v51.025zM307.276 281.773v-51.401h307.276v51.401zM435.024 409.522v-307.275h51.402v307.275z" />
<glyph unicode="&#xe948;" glyph-name="file-blank" data-tags="file-blank" d="M614.551 971.538v-254.741h256.252zM665.575 848.703l81.26-80.882h-81.26zM153.449 972.672v-1023.875h716.976v768h-51.402v-716.977h-614.173v921.826h409.701v51.025z" />
<glyph unicode="&#xe949;" glyph-name="filter" data-tags="filter" d="M102.425 972.672l307.276-518.929v-504.946l42.709 39.306 162.142 148.536v317.104l306.898 518.929zM192.378 921.27h639.118l-268.346-453.543v-308.787l-102.425-93.733v402.52z" />
<glyph unicode="&#xe94a;" glyph-name="finances" data-tags="finances" d="M614.551 972.672v-257.765h255.496zM665.575 848.325l81.638-82.393h-81.638zM153.449 972.672v-1023.875h716.976v768h-51.402v-716.977h-614.173v921.826h409.701v51.025zM499.15 639.95v-358.301h25.701v358.301zM511.999 614.437c-21.13 0-45-3.232-66.142-17.010-21.142-13.759-36.663-40.473-36.283-72.944 0.333-28.437 16.813-51.441 35.906-64.252s40.401-19.216 59.717-25.323c19.316-6.115 36.82-12.23 46.488-18.519s11.558-8.050 11.339-18.906c-0.455-22.486-5.455-27.572-12.85-32.127-7.395-4.548-21.958-6.966-38.173-6.792-32.166 0.387-40.233 10.372-45.732 19.653-5.5 9.269-5.669 18.132-5.669 18.132l-51.024 1.161c0 0-0.892-22.821 12.472-45.355 13.365-22.533 43.599-44.519 89.575-44.976 19.987-0.194 43.718 0.968 65.386 14.359 21.667 13.352 36.724 40.545 37.417 74.835 0.561 27.794-16.313 50.867-35.15 63.118-18.836 12.249-39.422 18.132-58.583 24.189s-36.825 12.153-46.866 18.906c-10.041 6.734-13.085 10.469-13.228 22.678-0.219 18.674 4.872 24.036 13.228 29.48 8.357 5.438 23.1 8.689 38.173 8.689 31.605 0 39.716-10.198 45.354-19.653 5.638-9.463 5.669-18.519 5.669-18.519l51.402-0.774c0 0 0.199 22.817-13.228 45.353-13.428 22.538-43.468 44.599-89.197 44.599z" />
<glyph unicode="&#xe94b;" glyph-name="flag" data-tags="flag" d="M102.425 256.073v-307.275h51.024v307.275zM204.8 896.001c0 0 0-0.001 0-0.001 0-42.415-34.385-76.8-76.8-76.8v0c-42.415 0-76.8 34.385-76.8 76.8 0 0 0 0.001 0 0.001v0c0.001 42.415 34.385 76.799 76.8 76.799v0c42.415 0 76.799-34.384 76.8-76.799v0zM921.449 819.601l-40.819-31.37c0 0-97.824-71.433-189.354-71.433-45.886 0-91.297 22.68-137.197 48.001s-91.745 54.156-144.378 54.425c-52.882 0.194-122.126-27.206-182.929-53.291s-110.74-52.159-110.74-52.159l-13.606-7.179v-517.801l37.039 18.906c0 0 49.333 24.831 108.472 49.889 59.139 25.060 131.026 49.080 162.142 49.512 31.907 0.387 69.1-21.162 114.52-47.244 45.419-26.080 99.457-55.18 166.677-55.18 111.173 0 219.591 81.637 219.591 81.637l10.583 7.934zM409.323 767.821c32.216-0.164 73.476-22.231 120.189-47.999 46.713-25.77 99.75-54.048 161.764-54.048 94.86 0 150.195 46.226 179.15 66.52v-408.567c-10.788-7.199-99.518-67.654-179.15-67.654-52.451 0-97.104 22.591-141.354 48.001s-87.655 55.149-140.598 54.425c-51.464-0.774-120.402-27.815-181.417-53.67-40.707-17.242-55.003-24.876-74.457-34.393v404.409c10.187 5.244 42.419 22.207 93.732 44.221 58.764 25.211 130.093 48.902 162.142 48.755zM102.425 870.246v-163.653h51.024v163.653z" />
<glyph unicode="&#xe94c;" glyph-name="folder" data-tags="folder" d="M114.142 870.246l-114.142-171.213v-647.81h1023.874v665.574h-498.142l-102.425 153.449zM141.732 819.223h253.984l102.425-153.449h474.709v-563.528h-921.827v581.292z" />
<glyph unicode="&#xe94d;" glyph-name="font" data-tags="font" d="M287.979 819.188l-201.826-573.298c-12.584-35.908-25.653-63.528-39.205-82.864-13.228-19.332-28.879-30.554-46.948-33.661v-25.379h206.667v25.379c-20.328 3.096-35.494 9.482-45.496 19.158-9.679 9.676-14.519 24.862-14.519 45.576 0 10.701 1.297 22.616 3.872 35.736 2.581 13.139 8.068 32.454 16.456 58.003l16.456 50.752h225.541l17.91-66.808c4.84-16.894 8.549-32.282 11.131-46.091 2.581-13.488 3.872-26.068 3.872-37.808 0-12.423-1.935-22.442-5.807-30.037-3.872-7.257-9.842-12.946-17.91-17.087-7.744-4.141-19.682-7.934-35.816-11.398v-25.379h223.121v25.379c-14.519 3.793-25.974 9.676-34.363 17.61s-15.647 18.984-21.778 33.145c-5.807 14.146-12.584 34.701-20.328 61.63l-164.558 577.445zM306.856 717.684l91.959-334.036h-202.31zM837.956 579.151c-25.776 0-51.934-2.438-78.476-7.295-26.542-4.876-46.831-9.327-60.867-13.372v-77.505h3.826c24.755 10.005 48.745 17.571 71.969 22.722 23.224 5.418 44.278 8.108 63.164 8.108 15.568 0 30.497-0.968 44.789-3.232 14.291-2.167 26.541-6.347 36.75-12.559 10.719-6.502 18.887-15.423 24.501-26.782 5.869-11.378 8.803-25.7 8.803-43.014v-11.766c-41.854-2.167-81.027-5.399-117.522-9.734-36.495-4.315-67.757-12.559-93.788-24.754-25.776-12.172-45.684-28.945-59.72-50.317-13.782-21.102-20.671-48.831-20.671-83.189 0-41.93 13.399-76.424 40.196-103.477 26.797-27.051 59.464-40.577 98-40.577 20.927 0 39.174 2.167 54.741 6.502 15.568 4.064 29.348 9.192 41.343 15.404 10.208 4.876 20.672 11.359 31.39 19.477 10.974 8.379 19.651 14.881 26.031 19.479v-59.623h71.586v318.923c0 29.216-4.211 53.698-12.632 73.447-8.422 19.748-20.672 35.844-36.75 48.289-16.332 12.714-35.729 21.642-58.187 26.782-22.203 5.399-48.361 8.108-78.476 8.108zM952.415 352.72v-126.203c-17.865-14.61-37.26-27.186-58.187-37.737-20.927-10.275-44.022-15.423-69.287-15.423-30.37 0-52.955 6.502-67.757 19.477-14.802 13.256-22.204 32.874-22.204 58.843 0 22.995 6.38 40.982 19.14 53.967 12.76 13.256 29.476 22.997 50.148 29.218 17.354 5.147 40.833 9.056 70.437 11.766 29.859 2.709 55.762 4.76 77.709 6.076z" />
<glyph unicode="&#xe94e;" glyph-name="funitures" data-tags="funitures" d="M113.493 312.155c-26.863 0-48.64-22.184-48.64-49.548s21.777-49.548 48.64-49.548c26.863 0 48.64 22.184 48.64 49.548v0c-0.031 27.352-21.789 49.517-48.637 49.548h-0.003zM113.493 246.091c-8.954 0-16.213 7.395-16.213 16.516s7.259 16.516 16.213 16.516c8.954 0 16.213-7.395 16.213-16.516v0c-0.010-9.117-7.263-16.506-16.212-16.516h-0.001zM729.6 312.155c-26.863 0-48.64-22.184-48.64-49.548s21.777-49.548 48.64-49.548c26.863 0 48.64 22.184 48.64 49.548v0c-0.031 27.352-21.789 49.517-48.637 49.548h-0.003zM729.6 246.091c-8.954 0-16.213 7.395-16.213 16.516s7.259 16.516 16.213 16.516c8.954 0 16.213-7.395 16.213-16.516v0c-0.010-9.117-7.263-16.506-16.212-16.516h-0.001zM843.094 262.607c0 0 0 0 0 0 0 63.851-50.813 115.613-113.493 115.613-0.68 0-1.358-0.006-2.035-0.018l0.102 0.001c-61.513-1.047-111.56-53.634-111.56-117.227v-55.484c-44.414 12.315-109.191 24.083-194.56 24.083s-150.146-11.768-194.56-24.083v57.115c0 0 0 0 0 0 0 63.851-50.813 115.613-113.493 115.613-1.55 0-3.092-0.032-4.626-0.094l0.22 0.007c-59.138-2.617-106.433-50.795-108.994-110.796l-0.008-0.242c-0.054-1.331-0.085-2.893-0.085-4.462 0-58.036 41.957-106.090 96.657-114.403l0.622-0.078v-67.223c0.041-36.469 29.053-66.022 64.849-66.064h0.004v-49.548c0-9.122 7.259-16.516 16.213-16.516v0h48.64c6.311 0 11.78 3.673 14.458 9.035l0.043 0.094 27.946 56.935h304.227l27.946-56.935c2.721-5.456 8.19-9.129 14.501-9.129h48.64c8.954 0 16.213 7.395 16.213 16.516v0 49.548c35.801 0.042 64.812 29.595 64.853 66.060v67.245c55.284 8.435 97.207 56.437 97.28 114.428v0.008zM216.966-18.167h-22.407v33.032h38.62zM648.533-18.167h-22.407l-16.213 33.032h38.62zM729.6 180.026c-8.954 0-16.213-7.395-16.213-16.516v0-82.581c-0.022-18.234-14.527-33.010-32.425-33.032h-518.829c-17.9 0.022-32.405 14.798-32.427 33.030v82.583c0 9.122-7.259 16.516-16.213 16.516v0c0 0-0.001 0-0.001 0-44.772 0-81.067 36.973-81.067 82.581 0 1.137 0.023 2.269 0.067 3.394l-0.005-0.161c1.837 43.010 35.602 77.407 77.654 79.271l0.17 0.006c0.949 0.041 2.063 0.064 3.182 0.064 44.77 0 81.063-36.969 81.067-82.574v0-67.303c-25.558-9.084-38.989-16.603-40.375-17.398l15.863-28.81c0.837 0.475 85.704 47.447 251.499 47.447s250.662-46.972 251.465-47.428l15.897 28.792c-1.386 0.795-14.817 8.322-40.375 17.398v65.672c0 45.679 35.742 83.452 79.674 84.199 0.418 0.008 0.91 0.012 1.404 0.012 44.772 0 81.067-36.973 81.067-82.581s-36.295-82.581-81.067-82.581c-0.004 0-0.008 0-0.012 0h0.001zM129.706 493.833c0.021 18.234 14.527 33.011 32.427 33.032h518.827c17.9-0.022 32.405-14.798 32.427-33.032v-135.432h32.427v135.432c-0.040 36.469-29.053 66.024-64.853 66.064h-518.827c-35.801-0.041-64.813-29.595-64.853-66.064v-135.432h32.427zM907.947 972.8h-453.974c-35.801-0.041-64.813-29.595-64.853-66.064v-51.674h32.41l0.017 51.674c0.021 18.234 14.527 33.011 32.427 33.032h210.774v-388.864h32.427v388.864h210.774c17.9-0.022 32.405-14.798 32.427-33.032v-825.806c-0.021-18.234-14.527-33.011-32.427-33.032h-226.987v-33.032h119.687l27.946-56.935c2.746-5.595 8.36-9.129 14.501-9.129h48.64c8.954 0 16.213 7.395 16.213 16.516v49.548c35.801 0.041 64.813 29.595 64.853 66.064v825.806c-0.040 36.469-29.053 66.024-64.853 66.064zM875.52-18.167h-22.407l-16.213 33.032h38.62zM113.493 625.961h145.92l0.419-71.538h32.427l-0.419 71.538h145.92c9.486 0 16.945 8.26 16.157 17.889l-16.213 198.193c-0.701 8.559-7.725 15.143-16.157 15.143h-129.707v33.032h-32.427v-33.032h-129.707c-8.432 0-15.456-6.584-16.157-15.143l-16.213-198.193c-0.788-9.629 6.671-17.889 16.157-17.889zM144.625 824.155h262.004l13.512-165.161h-289.027zM389.12 631.536v-74.107h32.41v74.107zM428.373 14.874v-49.549c-0.005-9.134 7.255-16.526 16.213-16.526h48.64c6.142 0.002 11.756 3.541 14.501 9.134l27.946 56.935c-11.726 0-74.873 8.689-107.3 0.006zM483.207-18.158h-22.407v33.032h38.62z" />
</font>
</defs>
</svg>
